<?xml version="1.0" encoding="UTF-8" standalone="no"?>
<!-- Created with Inkscape (http://www.inkscape.org/) -->

<svg
   width="162.56001mm"
   height="48.768002mm"
   viewBox="0 0 162.56001 48.768002"
   version="1.1"
   id="svg1"
   xml:space="preserve"
   inkscape:version="1.3.2 (091e20e, 2023-11-25, custom)"
   sodipodi:docname="bismillah.svg"
   xmlns:inkscape="http://www.inkscape.org/namespaces/inkscape"
   xmlns:sodipodi="http://sodipodi.sourceforge.net/DTD/sodipodi-0.dtd"
   xmlns="http://www.w3.org/2000/svg"
   xmlns:svg="http://www.w3.org/2000/svg"><sodipodi:namedview
     id="namedview1"
     pagecolor="#ffffff"
     bordercolor="#000000"
     borderopacity="0.25"
     inkscape:showpageshadow="2"
     inkscape:pageopacity="0.0"
     inkscape:pagecheckerboard="0"
     inkscape:deskcolor="#d1d1d1"
     inkscape:document-units="mm"
     inkscape:zoom="3.2409232"
     inkscape:cx="266.89926"
     inkscape:cy="60.322318"
     inkscape:window-width="3840"
     inkscape:window-height="2054"
     inkscape:window-x="-11"
     inkscape:window-y="-11"
     inkscape:window-maximized="1"
     inkscape:current-layer="layer1" /><defs
     id="defs1" /><g
     inkscape:label="Layer 1"
     inkscape:groupmode="layer"
     id="layer1"
     transform="translate(-24.533528,-167.60868)"><g
       id="g1"
       transform="translate(2.1225948,5.4697635)"><path
         style="fill:#d0d0d0;fill-opacity:1"
         d="m 83.832029,192.35296 c -0.07631,-0.0493 -0.08675,-0.0826 -0.02616,-0.0834 0.05546,-7.1e-4 0.124384,0.0368 0.153163,0.0834 0.06497,0.10512 0.03566,0.10512 -0.127,0 z M 68.486195,179.42388 c 0.104775,-0.0202 0.276225,-0.0202 0.381,0 0.104775,0.0202 0.01905,0.0367 -0.1905,0.0367 -0.20955,0 -0.295275,-0.0165 -0.1905,-0.0367 z"
         id="path5" /><path
         style="fill:#a3a3a3;fill-opacity:1"
         d="m 72.656029,176.28041 c 0,-0.0388 0.05547,-0.0706 0.123275,-0.0706 0.0678,0 0.103653,0.0318 0.07967,0.0706 -0.02398,0.0388 -0.07946,0.0705 -0.123276,0.0705 -0.04382,0 -0.07967,-0.0317 -0.07967,-0.0705 z"
         id="path4" /><path
         style="fill:#767676;fill-opacity:1"
         d="m 28.248358,180.92296 c 0.02878,-0.0466 0.06913,-0.0847 0.08966,-0.0847 0.02054,0 0.03734,0.0381 0.03734,0.0847 0,0.0466 -0.04035,0.0847 -0.08966,0.0847 -0.04931,0 -0.06612,-0.0381 -0.03734,-0.0847 z"
         id="path3" /><path
         style="fill:#606060;fill-opacity:1"
         d="m 171.19216,183.91313 c 0.0611,-0.0245 0.13415,-0.0214 0.16228,0.007 0.0281,0.0281 -0.0219,0.0481 -0.11113,0.0445 -0.0986,-0.004 -0.11869,-0.0241 -0.0512,-0.0512 z"
         id="path2" /><path
         style="fill:#333333;fill-opacity:1"
         d="m 32.565588,203.16913 c -0.02078,-0.0582 -0.242829,-0.73448 -0.493433,-1.50283 -0.390483,-1.19722 -1.027452,-2.80169 -1.678878,-4.22895 -1.565897,-3.43083 -1.967502,-4.51259 -2.118164,-5.70545 -0.137674,-1.09003 -0.02945,-1.8432 0.390257,-2.71579 0.257738,-0.53586 0.492707,-0.8361 1.318246,-1.68445 1.282419,-1.31785 1.2896,-1.32746 2.738886,-3.66505 0.262574,-0.42351 0.568985,-0.86883 0.680913,-0.98961 0.111928,-0.12077 0.186494,-0.2366 0.165702,-0.25739 -0.02079,-0.0208 0.107031,-0.16127 0.284052,-0.31217 0.177021,-0.15091 0.267071,-0.24387 0.200112,-0.20659 -0.162136,0.0903 0.411569,-0.70565 0.636513,-0.88306 0.09686,-0.0764 0.160357,-0.18612 0.141112,-0.24385 -0.01925,-0.0577 0.02277,-0.10498 0.09336,-0.10498 0.07059,0 0.150598,-0.0701 0.177791,-0.15577 0.02719,-0.0857 0.144061,-0.20642 0.259706,-0.26831 0.115645,-0.0619 0.210264,-0.14043 0.210264,-0.17453 0,-0.12641 0.611559,-0.41739 0.877263,-0.41739 0.346462,0 0.947799,0.37595 1.281737,0.80133 0.1397,0.17795 0.3683,0.43213 0.508,0.56484 l 0.254,0.24128 0.05942,-0.81192 c 0.06324,-0.86411 0.266189,-1.62625 0.452044,-1.69757 0.06206,-0.0238 0.09373,-0.0931 0.07038,-0.15397 -0.05511,-0.14361 0.60668,-0.84084 0.727328,-0.76627 0.05061,0.0313 0.08156,0.009 0.06876,-0.0505 -0.01325,-0.0611 0.195328,-0.19869 0.484736,-0.31967 0.435939,-0.18223 0.634106,-0.21181 1.397,-0.20855 1.003219,0.004 1.144476,0.0344 4.699,1.00297 2.129552,0.58025 3.354091,0.83926 4.298439,0.90919 0.175508,0.013 0.308858,0.0616 0.296333,0.10804 -0.01252,0.0464 -0.04997,0.0753 -0.08322,0.0643 -0.03325,-0.0111 -0.0404,0.0321 -0.01589,0.096 0.04134,0.10774 -0.181858,0.53294 -0.715731,1.3635 -0.119729,0.18627 -0.225127,0.35106 -0.234217,0.36619 -0.0091,0.0151 -0.06764,0.0353 -0.130119,0.0447 -0.06247,0.009 -0.161217,0.0469 -0.219425,0.0833 -0.05821,0.0364 -0.106417,0.0353 -0.10713,-0.002 -7.13e-4,-0.0377 -0.02929,-0.0273 -0.0635,0.0231 -0.08803,0.12962 -3.255897,1.40479 -3.181366,1.2806 0.03757,-0.0626 0.0058,-0.0572 -0.08192,0.014 -0.07879,0.0639 -0.143253,0.0852 -0.143253,0.0473 0,-0.0379 -0.04762,-0.006 -0.105833,0.0708 -0.112093,0.14791 -2.155792,1.04799 -3.153834,1.389 -1.250798,0.42737 -2.861925,0.58269 -3.141738,0.30287 -0.08149,-0.0815 -0.169938,-0.14816 -0.196548,-0.14816 -0.02661,0 -0.04097,-0.0222 -0.03192,-0.0494 0.0091,-0.0272 -0.032,-0.0494 -0.09123,-0.0494 -0.149559,0 -0.898894,-0.52514 -0.898894,-0.62995 0,-0.0471 -0.0323,-0.0656 -0.07179,-0.0412 -0.102912,0.0636 -1.08801,-0.78767 -1.53688,-1.3281 -0.461043,-0.55508 -0.886268,-0.85116 -1.222408,-0.85116 -0.193449,0 -0.33428,0.0947 -0.619249,0.41627 -0.20287,0.22896 -0.450005,0.55916 -0.549189,0.73378 -0.09918,0.17463 -0.21142,0.3175 -0.249412,0.3175 -0.03799,0 -0.06908,0.0345 -0.06908,0.0767 0,0.0422 -0.395905,0.70682 -0.879788,1.47698 l -0.879789,1.40029 0.499701,0.43463 c 0.275905,0.23998 0.474475,0.47545 0.443374,0.52577 -0.03098,0.0501 -0.01788,0.0674 0.02911,0.0383 0.208991,-0.12916 0.884306,0.9217 1.16673,1.81555 0.217414,0.6881 0.445892,2.32686 0.356788,2.55906 -0.08772,0.2286 -0.699423,0.17663 -1.307629,-0.1111 -0.291042,-0.13769 -0.529167,-0.29231 -0.529167,-0.3436 0,-0.0513 -0.03555,-0.0713 -0.079,-0.0444 -0.09145,0.0565 -1.275662,-1.08335 -1.275662,-1.22789 0,-0.0531 -0.0773,-0.19484 -0.171769,-0.31494 -0.09447,-0.1201 -0.213297,-0.38329 -0.264052,-0.58485 -0.06684,-0.26546 -0.135091,-0.36649 -0.24758,-0.36649 -0.191245,0 -0.552521,0.15154 -0.861766,0.36147 -0.128058,0.0869 -0.232833,0.13281 -0.232833,0.10195 0,-0.0984 -0.592636,0.64916 -0.800346,1.0096 -0.348575,0.6049 -0.44759,1.48144 -0.249641,2.20998 0.02171,0.0799 0.586204,1.39623 0.835102,1.94734 0.709251,1.57041 1.927053,4.60297 2.236975,5.57048 0.34541,1.0783 0.88205,3.95452 0.737827,3.95452 -0.03074,0 -0.0729,-0.0476 -0.09369,-0.10584 z m 9.874007,-20.58132 c 0.896806,-0.26815 1.743614,-0.60263 2.742098,-1.0831 0.4191,-0.20167 0.78105,-0.36934 0.804333,-0.37259 0.02328,-0.003 0.347134,-0.16261 0.719667,-0.35412 0.42616,-0.21909 0.630238,-0.36548 0.550334,-0.39477 -0.261139,-0.0957 -4.636188,-1.15034 -5.172793,-1.2469 -0.728019,-0.13101 -1.712394,0.005 -2.283878,0.31641 -0.554845,0.30198 -0.799392,0.8444 -0.727551,1.61373 0.02717,0.29098 0.109066,0.64443 0.181987,0.78544 0.07292,0.14101 0.103029,0.25755 0.06691,0.25896 -0.03612,0.001 0.0018,0.0419 0.08427,0.0899 0.08247,0.048 0.12421,0.12894 0.09275,0.17984 -0.033,0.0534 -0.0183,0.0685 0.03476,0.0357 0.05058,-0.0313 0.152446,0.0295 0.226379,0.13508 0.07393,0.10556 0.15274,0.18239 0.175127,0.17075 0.09588,-0.0499 0.216364,-0.0152 0.175736,0.0505 -0.02436,0.0394 0.325815,0.063 0.77817,0.0525 0.594236,-0.0139 1.024821,-0.0797 1.551699,-0.23727 z m -7.697923,18.01139 c -0.009,-0.0514 -0.191101,-1.02294 -0.404731,-2.159 -0.375986,-1.99945 -0.436507,-2.52203 -0.340725,-2.94204 0.05179,-0.2271 0.204921,-0.43586 0.319717,-0.43586 0.04281,0 0.15676,-0.0735 0.253219,-0.16339 0.09646,-0.0899 0.39014,-0.24821 0.652626,-0.35187 0.617588,-0.2439 0.688335,-0.31199 0.482232,-0.46411 -0.184008,-0.13581 -0.809318,-0.16641 -0.809318,-0.0396 0,0.0449 -0.07198,0.12021 -0.159957,0.16729 -0.146213,0.0782 -0.154626,0.062 -0.09791,-0.18951 0.03413,-0.15131 0.10283,-0.35042 0.152672,-0.44246 0.109938,-0.20301 0.613193,-0.69228 0.613193,-0.59615 0,0.0377 0.04893,0.0279 0.10873,-0.0217 0.06801,-0.0564 0.220836,-0.065 0.408087,-0.0227 0.407249,0.0918 1.285766,0.66129 1.209815,0.78418 -0.03728,0.0603 -0.02161,0.0728 0.042,0.0335 0.0558,-0.0345 0.155725,-0.0177 0.222054,0.0374 0.102917,0.0854 0.09056,0.15785 -0.08428,0.49412 -0.335299,0.64489 -0.888946,1.02904 -1.483072,1.02904 -0.142692,0 -0.395613,0.0569 -0.562048,0.12644 -0.166434,0.0695 -0.342547,0.10175 -0.391362,0.0716 -0.05166,-0.0319 -0.0636,-0.0142 -0.02857,0.0425 0.03583,0.058 -0.02511,0.13625 -0.150529,0.19339 -0.387318,0.17648 -0.439715,0.49022 -0.236045,1.41339 0.23576,1.06862 0.372007,2.29002 0.332267,2.97866 -0.01747,0.30268 -0.0391,0.50829 -0.04807,0.4569 z m 19.162051,-2.4608 c -0.518828,-0.15915 -1.398363,-0.76867 -1.398363,-0.96907 0,-0.0365 -0.09026,-0.1637 -0.200582,-0.28274 -0.492262,-0.53116 -0.846685,-2.4157 -0.653593,-3.47529 0.05092,-0.2794 0.106044,-0.5842 0.122507,-0.67733 0.05969,-0.33769 0.346544,-1.28994 0.662032,-2.19772 0.177328,-0.51024 0.290699,-0.95942 0.251935,-0.99819 -0.03876,-0.0388 -0.429013,-0.0594 -0.867222,-0.046 l -0.796743,0.0245 -0.06525,1.18533 c -0.09486,1.72319 -0.163367,1.9901 -0.639289,2.49075 -0.440902,0.46381 -1.658108,1.44626 -1.791845,1.44626 -0.04727,0 -0.08595,0.0338 -0.08595,0.075 0,0.0413 -0.232481,0.24129 -0.516624,0.4445 -0.284144,0.20321 -0.579419,0.42872 -0.656167,0.50114 -0.332223,0.31345 -0.839879,0.66378 -0.889698,0.61396 -0.0298,-0.0298 -0.05418,-0.0116 -0.05418,0.0405 0,0.0521 -0.180975,0.22037 -0.402167,0.37394 -1.312039,0.91099 -2.238264,1.20817 -3.577167,1.14776 -0.774066,-0.0349 -1.312822,-0.1804 -1.220614,-0.3296 0.02424,-0.0392 -0.0089,-0.051 -0.07368,-0.0261 -0.06476,0.0249 -0.253521,-0.0804 -0.419459,-0.2338 -0.368788,-0.34102 -0.927412,-1.15747 -0.863125,-1.26149 0.02578,-0.0417 0.01069,-0.0758 -0.03352,-0.0758 -0.04421,0 -0.160762,-0.29787 -0.258997,-0.66194 -0.294059,-1.08979 -0.249339,-1.87397 0.248622,-4.35972 0.478055,-2.38639 0.584011,-3.2688 0.540741,-4.50335 l -0.02968,-0.84666 0.128819,0.508 c 0.234202,0.92359 0.181746,2.30813 -0.165202,4.36033 -0.352074,2.08253 -0.404711,3.32239 -0.170994,4.02775 0.07604,0.22949 0.17129,0.45345 0.211667,0.49769 0.04038,0.0442 0.07341,0.15536 0.07341,0.24694 0,0.0916 0.02039,0.14612 0.0453,0.12121 0.02492,-0.0249 0.165319,0.0668 0.312003,0.20382 0.609885,0.56972 1.361193,0.77791 2.352026,0.65175 0.915923,-0.11662 0.828485,-0.0913 1.820333,-0.5266 0.993885,-0.43618 2.4267,-1.44565 3.561241,-2.50902 0.201197,-0.18858 0.3872,-0.34287 0.41334,-0.34287 0.02614,0 0.186805,-0.15417 0.357033,-0.34259 0.180089,-0.19933 0.358848,-0.32365 0.42751,-0.2973 0.0649,0.0249 0.100169,0.0164 0.07837,-0.0189 -0.0218,-0.0353 0.147672,-0.25258 0.376603,-0.48291 0.299979,-0.3018 0.416238,-0.48507 0.416238,-0.65614 0,-0.2182 -0.529341,-1.486 -1.314478,-3.14825 -0.179514,-0.38006 -0.317225,-0.80172 -0.317991,-0.97367 -7.63e-4,-0.17109 0.125982,-0.57567 0.29078,-0.92818 l 0.292132,-0.62489 0.682488,0.96581 c 0.375369,0.53119 0.820462,1.07104 0.989096,1.19967 0.805223,0.61417 1.797785,0.63696 2.533498,0.0582 0.398259,-0.31331 0.512618,-0.63359 0.451469,-1.26441 -0.205918,-2.12431 -0.697138,-5.70607 -1.243235,-9.06514 -0.697253,-4.28884 -0.85959,-5.21146 -0.945248,-5.3722 -0.152044,-0.28532 -0.100925,-1.01956 0.106577,-1.53081 0.152254,-0.37513 0.211167,-0.44991 0.270677,-0.34357 0.04184,0.0748 0.04885,0.18325 0.01558,0.24108 -0.03327,0.0578 -0.02932,0.0769 0.0088,0.0424 0.104042,-0.0942 1.401602,2.23149 1.736687,3.11283 0.120686,0.31743 -0.02897,0.31463 -0.331595,-0.006 -0.151594,-0.16072 -0.312879,-0.29222 -0.35841,-0.29222 -0.04553,0 -0.06413,-0.0302 -0.04132,-0.0671 0.02281,-0.0369 -0.03464,-0.0728 -0.127668,-0.0798 -0.140355,-0.0106 -0.161374,0.0261 -0.123532,0.21526 0.125878,0.62938 1.15188,7.76897 1.541486,10.72666 0.237383,1.8021 0.15011,3.25667 -0.253331,4.22224 -0.13185,0.31556 -0.875046,1.1541 -1.022879,1.1541 -0.127054,0 -0.320966,0.34399 -0.620993,1.10162 -0.606838,1.53237 -0.801808,3.14012 -0.491192,4.05042 0.08502,0.24918 0.319091,0.65501 0.52015,0.90185 0.201058,0.24685 0.349119,0.47161 0.329024,0.49946 -0.02009,0.0279 -0.01284,0.0333 0.01611,0.0121 0.02895,-0.0212 0.24803,0.0645 0.486833,0.1905 0.392086,0.20683 0.520393,0.22904 1.323188,0.22904 0.867495,0 0.906409,-0.008 1.608667,-0.34737 0.395817,-0.19105 1.012212,-0.55891 1.369766,-0.81746 0.357555,-0.25854 0.675055,-0.44513 0.705556,-0.41463 0.0305,0.0305 0.04276,0.0174 0.02723,-0.0292 -0.01552,-0.0466 -0.0092,-0.0905 0.01411,-0.0976 0.02328,-0.007 0.270933,-0.2318 0.550333,-0.49936 1.140775,-1.09244 1.33566,-1.26483 1.407031,-1.24459 0.04105,0.0116 0.06511,-0.0265 0.05347,-0.0847 -0.01164,-0.0582 0.02929,-0.0954 0.09096,-0.0826 0.06167,0.0128 0.08918,-0.0139 0.06113,-0.0593 -0.02805,-0.0454 0.03579,-0.12886 0.141873,-0.18551 0.10608,-0.0566 0.288122,-0.20288 0.404538,-0.32496 0.129041,-0.13532 0.277768,-0.20924 0.381,-0.18937 0.137056,0.0264 0.149141,0.0117 0.0634,-0.0773 -0.08542,-0.0886 -0.05352,-0.16399 0.164775,-0.38921 0.14889,-0.15362 0.298637,-0.27931 0.332771,-0.27931 0.03414,0 0.280379,-0.22888 0.54721,-0.50862 0.266831,-0.27975 0.497796,-0.49598 0.513255,-0.48052 0.01546,0.0155 0.216973,-0.15393 0.447809,-0.37643 0.230836,-0.2225 0.907444,-0.78806 1.503574,-1.2568 0.59613,-0.46874 1.227691,-0.9706 1.403468,-1.11523 0.55169,-0.45395 1.37614,-1.05496 1.526123,-1.11251 0.07917,-0.0304 0.143948,-0.0945 0.143948,-0.14256 0,-0.048 0.0381,-0.0873 0.08467,-0.0873 0.104537,0 0.423333,-0.31122 0.423333,-0.41328 0,-0.041 -0.136399,-0.17865 -0.303108,-0.30581 -0.16671,-0.12715 -0.413071,-0.3317 -0.54747,-0.45455 -0.134399,-0.12284 -0.360253,-0.31223 -0.501898,-0.42085 -0.141645,-0.10863 -0.232296,-0.23834 -0.201448,-0.28825 0.03299,-0.0534 0.01627,-0.0661 -0.0406,-0.031 -0.138629,0.0857 -0.801631,-0.62624 -1.033324,-1.10956 -0.237084,-0.49456 -0.328612,-1.69651 -0.15984,-2.09903 0.116607,-0.27811 0.13662,-0.33921 0.152438,-0.46547 0.01872,-0.14945 0.551873,-0.65293 0.852784,-0.80533 0.263551,-0.13348 0.514079,-0.14335 2.582333,-0.10171 2.56754,0.0517 3.080923,0.11597 6.608467,0.82742 2.845973,0.57399 3.259667,0.67153 3.259667,0.76854 0,0.0456 -0.03766,0.0596 -0.0837,0.0311 -0.04603,-0.0285 -0.06335,0.001 -0.03848,0.0661 0.02487,0.0648 -0.01367,0.1667 -0.08564,0.22643 -0.07197,0.0597 -0.130854,0.1402 -0.130854,0.17884 0,0.1732 -0.790791,1.18609 -0.894842,1.14616 -0.0663,-0.0254 -0.09569,7.2e-4 -0.07153,0.0637 0.02255,0.0588 -0.03654,0.17704 -0.131311,0.26281 -0.09478,0.0858 -0.17232,0.12677 -0.17232,0.0911 0,-0.0357 -0.07493,0.0251 -0.166516,0.13505 -0.09158,0.10993 -0.167784,0.16692 -0.169334,0.12664 -0.0015,-0.0403 -0.08854,-0.0175 -0.193316,0.0505 -0.104775,0.0681 -0.40005,0.19204 -0.656167,0.27551 -0.256117,0.0835 -0.897978,0.31789 -1.426359,0.52093 -0.528381,0.20304 -0.995106,0.3479 -1.037167,0.3219 -0.04206,-0.026 -0.07647,-0.0123 -0.07647,0.0303 0,0.0708 -1.127296,0.58088 -2.286001,1.03435 -0.256116,0.10023 -0.478107,0.19466 -0.493312,0.20985 -0.01521,0.0152 0.106333,0.5369 0.270085,1.15935 0.163752,0.62246 0.317179,1.22597 0.34095,1.34113 0.02377,0.11517 0.121017,0.45705 0.216102,0.75973 0.263918,0.84013 0.256663,0.86168 -0.270325,0.80304 -1.186238,-0.13201 -1.488122,-0.24792 -1.947333,-0.74769 -0.29559,-0.3217 -0.317152,-0.38081 -0.312453,-0.85661 0.0028,-0.28109 0.03459,-0.69044 0.0707,-0.90967 0.03611,-0.21923 0.04255,-0.43598 0.01432,-0.48166 -0.06641,-0.10745 -1.190737,0.58764 -1.190737,0.73615 0,0.0615 -0.02986,0.0933 -0.06637,0.0708 -0.107825,-0.0666 -0.321058,0.86555 -0.734201,3.20968 -0.387726,2.19992 -0.388334,2.20647 -0.264891,2.85165 0.06805,0.35567 0.183988,0.7632 0.257641,0.90563 0.07365,0.14243 0.123617,0.2716 0.111032,0.28706 -0.01259,0.0154 0.04294,0.0939 0.123398,0.17438 0.08045,0.0805 0.194754,0.2145 0.254,0.29787 0.179126,0.25207 0.87008,0.58703 1.414619,0.68577 0.612084,0.11099 1.169989,0.0282 2.217449,-0.32924 0.890895,-0.30397 1.109538,-0.40266 1.661485,-0.74996 0.244475,-0.15382 0.4445,-0.26387 0.4445,-0.24453 0,0.0193 0.161908,-0.11285 0.359796,-0.29373 0.197888,-0.18089 0.407438,-0.32889 0.465667,-0.32889 0.05823,0 0.105871,-0.0292 0.105871,-0.065 0,-0.0927 1.62744,-1.42101 1.709721,-1.3955 0.03755,0.0116 0.05875,-0.0265 0.04711,-0.0847 -0.01164,-0.0582 0.02646,-0.0963 0.08467,-0.0847 0.05821,0.0116 0.09631,-0.0247 0.08467,-0.0808 -0.01164,-0.0561 0.01693,-0.10619 0.0635,-0.11132 0.04657,-0.005 0.341841,-0.26134 0.656166,-0.56934 0.443329,-0.43441 0.5715,-0.61463 0.5715,-0.80356 0,-0.3083 -0.472662,-1.48581 -1.079572,-2.68946 -0.408917,-0.81099 -0.470289,-0.99698 -0.47493,-1.43934 -0.0037,-0.34968 0.04532,-0.60035 0.157204,-0.80433 0.160947,-0.29344 0.180832,-0.3436 0.201382,-0.508 0.0058,-0.0466 0.0433,-0.0847 0.08329,-0.0847 0.107849,0 1.479519,1.69994 1.479519,1.8336 0,0.0631 0.06032,0.10494 0.134056,0.093 0.08138,-0.0131 0.122967,0.0283 0.105833,0.10536 -0.01552,0.0699 -0.0014,0.10014 0.03148,0.0673 0.03284,-0.0328 0.244294,0.0338 0.469907,0.14817 0.707575,0.35856 1.679335,0.21854 2.26632,-0.32655 0.350372,-0.32537 0.367939,-0.50056 0.183188,-1.82676 -0.09479,-0.68043 -0.324158,-2.34206 -0.509703,-3.69249 -0.496508,-3.61367 -1.056183,-7.19856 -1.453659,-9.31112 -0.200692,-1.06666 -0.181583,-1.95708 0.05164,-2.40648 l 0.149258,-0.28761 0.244558,0.45694 c 1.003895,1.8757 1.565429,3.10296 1.465487,3.2029 -0.02061,0.0206 -0.204571,-0.12652 -0.408801,-0.32695 -0.337126,-0.33087 -0.607155,-0.41095 -0.510745,-0.15147 0.0427,0.11492 0.108837,0.53804 1.009138,6.4559 0.347364,2.28329 0.668378,4.55024 0.713364,5.03767 0.208306,2.25699 -0.46282,4.13738 -1.712955,4.79942 -0.198217,0.10497 -0.495756,0.14257 -1.155924,0.14608 l -0.889,0.005 -0.05192,1.31233 c -0.05662,1.43124 -0.175338,1.92606 -0.562244,2.34353 -0.121724,0.13135 -0.204783,0.24153 -0.184576,0.24486 0.02021,0.003 -0.0254,0.0682 -0.101347,0.14413 -0.07595,0.076 -0.161673,0.1145 -0.1905,0.0857 -0.02883,-0.0288 -0.05241,0.005 -0.05241,0.0751 0,0.14798 -0.550984,0.67618 -0.626537,0.60062 -0.02794,-0.0279 -0.0508,0.0103 -0.0508,0.0849 0,0.11959 -1.143457,1.22865 -1.226458,1.18956 -0.01781,-0.008 -0.171105,0.11556 -0.340643,0.27546 -0.414708,0.39112 -1.023583,0.80389 -1.08913,0.73834 -0.02921,-0.0292 -0.0531,-0.0115 -0.0531,0.0393 0,0.12136 -0.811335,0.56337 -1.608667,0.8764 -0.828947,0.32545 -2.009536,0.53117 -2.621145,0.45675 -0.520441,-0.0633 -1.188855,-0.32265 -1.188855,-0.46125 0,-0.0492 -0.02858,-0.0802 -0.0635,-0.0689 -0.03493,0.0113 -0.187974,-0.0908 -0.340108,-0.22695 -0.20199,-0.18072 -0.247669,-0.26585 -0.169334,-0.31557 0.07877,-0.05 0.06955,-0.0684 -0.03468,-0.0694 -0.175139,-0.002 -0.579977,-0.69518 -0.840883,-1.44062 -0.164324,-0.46951 -0.191583,-0.712 -0.185588,-1.651 0.0039,-0.60537 0.05024,-1.27212 0.103065,-1.48167 0.05282,-0.20955 0.109707,-0.4953 0.126415,-0.635 0.0523,-0.43732 0.659645,-3.13051 0.715997,-3.175 0.06653,-0.0525 0.07099,-0.4754 0.0057,-0.54132 -0.02635,-0.0266 -0.313916,0.20813 -0.639047,0.52164 -1.24945,1.20478 -2.984307,2.81368 -3.03395,2.81368 -0.02857,0 -0.169027,0.13335 -0.312128,0.29633 -0.143101,0.16298 -0.313387,0.29633 -0.378413,0.29633 -0.06503,0 -0.118229,0.0485 -0.118229,0.10782 0,0.0593 -0.304801,0.41084 -0.677334,0.78119 -0.372533,0.37034 -0.677333,0.64372 -0.677333,0.60749 0,-0.0362 -0.231204,0.17421 -0.513787,0.46765 -0.282583,0.29344 -0.552115,0.52305 -0.59896,0.51026 -0.04684,-0.0128 -0.06419,0.0107 -0.03854,0.0522 0.02565,0.0415 -0.02867,0.1436 -0.120707,0.22689 -0.09203,0.0833 -0.167337,0.12733 -0.167337,0.0979 0,-0.0295 -0.15876,0.11867 -0.3528,0.32918 -0.231657,0.25132 -0.397938,0.36542 -0.484253,0.3323 -0.0723,-0.0277 -0.103505,-0.0225 -0.06935,0.0117 0.06827,0.0683 -0.346918,0.53952 -0.475343,0.53952 -0.04403,0 -0.14168,0.0671 -0.216993,0.1491 -0.206711,0.22508 -0.805591,0.65749 -0.877764,0.63377 -0.03493,-0.0115 -0.0635,0.0121 -0.0635,0.0523 0,0.0925 -1.24536,0.85009 -1.862667,1.13316 -0.883344,0.40508 -1.736067,0.49425 -2.496304,0.26105 z m 6.475638,-3.4521 c 0,-0.0205 -0.0381,-0.0609 -0.08467,-0.0897 -0.04657,-0.0288 -0.08467,-0.012 -0.08467,0.0373 0,0.0493 0.0381,0.0897 0.08467,0.0897 0.04657,0 0.08467,-0.0168 0.08467,-0.0373 z m 11.006667,-10.31657 c 0.395817,-0.16245 1.034515,-0.43171 1.419329,-0.59835 0.384814,-0.16664 0.708664,-0.30175 0.719667,-0.30024 0.02568,0.004 0.149201,-0.0438 1.372244,-0.52562 0.557465,-0.21963 1.024679,-0.43264 1.038255,-0.47337 0.01358,-0.0407 -0.194883,-0.14731 -0.46324,-0.23686 -0.268356,-0.0896 -0.506971,-0.18334 -0.530254,-0.20841 -0.02328,-0.0251 -0.118534,-0.0503 -0.211667,-0.056 -0.09313,-0.006 -0.550333,-0.10921 -1.016,-0.22998 -1.390991,-0.36074 -2.429647,-0.49333 -3.979334,-0.50799 -2.243777,-0.0212 -3.259667,0.10307 -3.259667,0.39884 0,0.0662 0.142875,0.24613 0.3175,0.39988 0.174625,0.15375 0.307975,0.31009 0.296334,0.34743 -0.01164,0.0373 0.02646,0.0584 0.08467,0.0467 0.05821,-0.0116 0.09537,0.0293 0.08257,0.091 -0.01279,0.0617 0.01578,0.088 0.0635,0.0585 0.04772,-0.0295 0.08676,-0.0133 0.08676,0.036 0,0.0493 0.05771,0.0897 0.128244,0.0897 0.07054,0 0.203742,0.12383 0.296017,0.27517 0.09228,0.15134 0.167915,0.22529 0.168089,0.16434 1.74e-4,-0.061 0.03904,-0.0869 0.08636,-0.0576 0.04733,0.0292 0.06049,0.0945 0.02925,0.14508 -0.03124,0.0505 -0.01832,0.0681 0.02871,0.0391 0.04703,-0.0291 0.233892,0.0707 0.415249,0.22172 0.181357,0.15102 0.46309,0.37458 0.626073,0.49681 0.162983,0.12222 0.383936,0.30554 0.491006,0.40737 0.308779,0.29368 0.609967,0.42069 0.811361,0.34216 0.09862,-0.0385 0.50315,-0.20283 0.898966,-0.36528 z m -7.826954,13.61058 c -0.118058,-0.11805 -0.240137,-0.31619 -0.271285,-0.44029 -0.139177,-0.55453 0.456879,-2.11766 1.075271,-2.81986 0.144796,-0.16442 0.220535,-0.2147 0.172694,-0.11463 -0.224005,0.46851 -0.600393,1.61597 -0.600393,1.83036 0,0.13228 0.05521,0.37264 0.12268,0.53413 0.102784,0.24599 0.165476,0.29361 0.386566,0.29361 0.145138,0 0.339694,-0.0406 0.432348,-0.0902 0.09265,-0.0496 0.199457,-0.0782 0.237341,-0.0635 0.111935,0.0433 -0.156728,0.831 -0.283438,0.831 -0.06346,0 -0.13731,0.0572 -0.164114,0.127 -0.0343,0.0894 -0.173744,0.127 -0.470877,0.127 -0.338961,0 -0.464438,-0.0423 -0.636793,-0.21466 z m 26.803768,-0.76783 -0.452039,-0.89351 -0.203053,0.19075 c -0.11168,0.10492 -0.203053,0.16235 -0.203053,0.12762 0,-0.0347 -0.05987,-0.003 -0.133048,0.0699 -0.200613,0.20061 -0.418263,0.16138 -0.707106,-0.12746 -0.232177,-0.23218 -0.260513,-0.31499 -0.260513,-0.76127 0,-0.45124 0.02635,-0.52593 0.266557,-0.75549 0.310964,-0.29717 0.525164,-0.31804 0.876443,-0.0854 0.1397,0.0925 0.227157,0.16847 0.194348,0.16878 -0.03281,3e-4 0.02714,0.0873 0.13322,0.19343 0.106078,0.10607 0.356339,0.46802 0.556134,0.80433 0.356101,0.59941 0.513298,0.7454 0.513298,0.4767 0,-0.0741 0.113618,-0.58839 0.252484,-1.14282 0.408335,-1.63031 0.949323,-2.45681 1.437206,-2.1957 0.218031,0.11669 0.28018,0.50299 0.19782,1.22962 l -0.06718,0.59266 -0.508,-0.0224 c -0.633681,-0.028 -0.741901,0.0535 -0.931708,0.70145 -0.08157,0.27848 -0.16834,0.56348 -0.192816,0.63333 -0.02447,0.0699 -0.03625,0.19367 -0.02617,0.27516 0.01008,0.0815 -0.01264,0.14849 -0.05049,0.14888 -0.03785,4e-4 -0.0768,0.20246 -0.08656,0.44902 -0.03615,0.91364 -0.109057,0.90431 -0.605785,-0.0776 z m 12.095858,0.40209 c 0,-0.1064 0.98365,-0.7784 1.04686,-0.71519 0.0296,0.0296 0.0538,0.0112 0.0538,-0.0409 0,-0.0521 0.17837,-0.21743 0.39638,-0.36743 1.48755,-1.02346 2.41144,-1.94241 2.94487,-2.9291 0.13911,-0.25731 0.27813,-0.41969 0.33269,-0.38859 0.0516,0.0294 0.0665,0.0232 0.0332,-0.0136 -0.0843,-0.0934 0.0731,-0.36154 0.27604,-0.47017 0.14365,-0.0769 0.21535,-0.0419 0.4732,0.23089 0.29129,0.30816 0.3021,0.34147 0.26064,0.80259 -0.0238,0.2646 -0.0713,0.52647 -0.10559,0.58194 -0.0675,0.10922 -0.87553,0.054 -0.96439,-0.066 -0.0268,-0.0362 -0.12919,-0.0768 -0.22755,-0.0903 -0.13143,-0.018 -0.20759,0.0449 -0.28727,0.23725 -0.0771,0.18615 -0.14773,0.24681 -0.24449,0.21 -0.10473,-0.0398 -0.11308,-0.0286 -0.0363,0.0488 0.0767,0.0773 0.0499,0.17606 -0.11616,0.42696 -0.11879,0.1795 -0.25532,0.30206 -0.3034,0.27234 -0.0529,-0.0327 -0.0615,-0.0122 -0.0218,0.0521 0.11203,0.18128 -1.63836,1.82065 -1.78615,1.67286 -0.025,-0.025 -0.11622,0.0254 -0.20277,0.11195 -0.0865,0.0865 -0.41123,0.23577 -0.72153,0.33161 -0.61401,0.18965 -0.80033,0.21336 -0.80033,0.10186 z m 49.53,-0.0217 c 1.77839,-0.28273 2.21989,-0.37246 2.9486,-0.59925 1.13694,-0.35385 2.41521,-0.89032 4.01446,-1.68482 1.05249,-0.52286 1.38018,-0.65191 1.44094,-0.56745 0.0581,0.0808 0.0671,0.0729 0.0343,-0.0302 -0.0339,-0.10667 0.0972,-0.20278 0.55675,-0.40828 0.3306,-0.14782 0.66899,-0.25101 0.75196,-0.22931 0.083,0.0217 0.16354,0.001 0.17902,-0.045 0.0443,-0.13301 0.57978,0.13479 0.91131,0.45579 0.53587,0.51886 0.87606,0.42298 1.44783,-0.40806 l 0.27252,-0.39609 0.1549,0.20422 c 0.20896,0.27548 0.42971,0.50084 0.48906,0.49926 0.10361,-0.003 0.23734,-0.14066 0.5119,-0.52787 0.15684,-0.22119 0.2914,-0.40217 0.29903,-0.40217 0.008,0 0.0177,0.12383 0.0224,0.27517 0.0245,0.79419 -0.411,1.60867 -0.86018,1.60867 -0.21733,0 -0.81171,-0.34051 -0.81285,-0.46567 -0.002,-0.20105 -0.34491,0.0263 -0.44715,0.29633 -0.0309,0.0815 -0.11446,0.14817 -0.18577,0.14817 -0.0713,0 -0.13024,0.0476 -0.13095,0.10583 -8.7e-4,0.0706 -0.0287,0.0635 -0.0834,-0.0212 -0.0712,-0.11024 -0.0822,-0.10864 -0.0834,0.0121 -7.1e-4,0.0765 -0.0616,0.16224 -0.13522,0.1905 -0.21003,0.0806 -0.54341,0.0602 -0.54341,-0.0333 0,-0.0466 -0.0286,-0.0802 -0.0635,-0.0746 -0.17752,0.028 -0.27869,-0.0205 -0.22475,-0.10778 0.0369,-0.0597 0.0233,-0.0748 -0.0349,-0.0388 -0.0524,0.0324 -0.19541,-0.007 -0.31769,-0.0867 -0.3499,-0.22926 -0.73076,-0.22438 -1.36348,0.0175 -0.31789,0.12152 -0.61607,0.22985 -0.66264,0.24074 -0.0466,0.0109 -0.23707,0.0877 -0.42333,0.17075 -0.87537,0.39018 -3.0245,1.22612 -3.556,1.38317 -1.16676,0.34476 -3.17895,0.63076 -4.23334,0.6017 -0.31486,-0.009 -0.30593,-0.0145 0.127,-0.0834 z m -73.448338,-0.41055 c 1.890409,-0.67961 3.007339,-1.25599 3.933724,-2.02998 0.254314,-0.21248 0.501964,-0.37362 0.550333,-0.3581 0.04837,0.0155 0.05929,-4.4e-4 0.02426,-0.0355 -0.03503,-0.035 -0.0068,-0.12659 0.06283,-0.20347 0.113001,-0.12487 0.107744,-0.15994 -0.04922,-0.32843 -0.325567,-0.34945 -0.352626,-0.94146 -0.05154,-1.12754 0.05589,-0.0345 0.101616,-0.10109 0.101616,-0.14787 0,-0.0468 0.13335,-0.22724 0.296333,-0.40101 0.162983,-0.17377 0.242822,-0.2834 0.177418,-0.24361 -0.08321,0.0506 -0.09975,0.0413 -0.05509,-0.0309 0.0485,-0.0785 0.09897,-0.0714 0.210248,0.0293 0.08054,0.0729 0.207134,0.13251 0.281331,0.13251 0.163023,0 0.677128,0.58389 0.867691,0.98547 0.162698,0.34286 0.185869,0.86314 0.04977,1.11744 -0.114849,0.2146 -0.424666,0.30888 -0.748194,0.22768 -0.128059,-0.0321 -0.251884,-0.0591 -0.275167,-0.0599 -0.02328,-7.9e-4 -0.109513,-0.0374 -0.191622,-0.0813 -0.151479,-0.0811 -0.431498,0.012 -0.399379,0.13278 0.03518,0.13228 -0.861448,1.14931 -1.3313,1.51007 -1.033449,0.79351 -2.274861,1.22208 -3.750366,1.29474 l -0.889,0.0438 z m 4.826001,-3.38997 c -0.02878,-0.0466 -0.01423,-0.0847 0.03234,-0.0847 0.04657,0 0.109517,0.0402 0.13989,0.0894 0.03037,0.0491 0.113729,0.0777 0.185234,0.0635 0.185915,-0.037 0.216581,-0.70603 0.03895,-0.84984 -0.09964,-0.0807 -0.117038,-0.0815 -0.07002,-0.003 0.0438,0.0729 -0.04023,0.12064 -0.280081,0.15899 -0.188459,0.0301 -0.342652,0.0822 -0.342652,0.11563 0,0.0915 0.260252,0.59486 0.307532,0.59486 0.02262,0 0.01758,-0.0381 -0.0112,-0.0847 z m 15.493147,2.62328 c -0.02925,-0.0473 -0.09032,-0.0631 -0.13572,-0.035 -0.0454,0.0281 -0.183188,-0.0149 -0.306204,-0.0955 -1.035218,-0.6783 -1.274556,-1.47949 -1.124023,-3.76271 l 0.04186,-0.635 -0.211199,0.0185 c -0.116159,0.0102 -0.402106,0.036 -0.635437,0.0573 -0.47491,0.0435 -1.28011,-0.18371 -1.443592,-0.40728 -0.05399,-0.0738 -0.133128,-0.13426 -0.175854,-0.13426 -0.197012,0 -0.700538,-0.78832 -0.962601,-1.50705 -0.106915,-0.29323 -0.221466,-0.50272 -0.254558,-0.46554 -0.03309,0.0372 -0.12404,0.32894 -0.202107,0.64838 -0.271493,1.11088 -0.762783,1.80177 -1.573301,2.21249 -0.782358,0.39645 -1.960581,0.37198 -2.557586,-0.0531 -0.131902,-0.0939 -0.214436,-0.21184 -0.18341,-0.26204 0.0328,-0.0531 0.01691,-0.0669 -0.03796,-0.0329 -0.144522,0.0893 -0.586966,-0.75641 -0.734069,-1.40318 -0.159423,-0.70093 -0.161028,-1.36965 -0.0061,-2.53353 0.146755,-1.10234 0.185611,-2.30025 0.0758,-2.33686 -0.13464,-0.0449 -0.421844,0.57155 -0.580565,1.24608 -0.08218,0.34925 -0.170388,0.67149 -0.196013,0.71608 -0.02563,0.0446 -0.05541,0.16376 -0.06618,0.2648 -0.04489,0.42104 -0.896167,3.54485 -1.046109,3.83877 -0.208758,0.4092 -0.503072,0.59901 -0.928773,0.59901 -0.545737,0 -0.852531,-0.37683 -1.218403,-1.49656 -0.390612,-1.19545 -0.480805,-1.66635 -0.480389,-2.5081 5.7e-4,-1.15253 0.106683,-2.86517 0.173083,-2.79352 0.03424,0.037 0.107097,0.94146 0.161904,2.01001 0.08658,1.68799 0.124754,2.00236 0.291031,2.39667 0.294481,0.69831 0.976919,0.99743 1.476811,0.64729 0.24399,-0.17089 0.261274,-0.21772 0.871811,-2.36212 0.612381,-2.15087 0.827807,-2.76612 0.943511,-2.69461 0.04904,0.0303 0.06149,0.0125 0.02854,-0.0408 -0.08518,-0.13783 0.328232,-0.75348 0.849503,-1.26507 0.519586,-0.50993 0.755055,-0.57995 0.679473,-0.20204 -0.261226,1.30614 -0.463489,5.12969 -0.307221,5.80767 0.02102,0.0912 0.161915,0.276 0.313105,0.41069 0.151191,0.1347 0.250079,0.28506 0.219752,0.33413 -0.03061,0.0495 -0.01506,0.0644 0.03497,0.0335 0.105551,-0.0652 0.374641,0.021 0.323539,0.1037 -0.01918,0.031 0.257301,0.0529 0.614408,0.0485 0.522353,-0.006 0.736165,-0.0516 1.093697,-0.23114 0.244426,-0.12277 0.444411,-0.20659 0.444411,-0.18627 0,0.13175 0.707378,-0.76717 0.890314,-1.13139 0.400292,-0.79696 0.378778,-1.41645 -0.137683,-3.9645 -0.144249,-0.71167 -0.223075,-1.31434 -0.193797,-1.48166 0.08565,-0.48948 0.299087,-1.08942 0.371626,-1.04459 0.03836,0.0237 0.04981,-0.0332 0.02544,-0.12635 -0.02478,-0.0948 -0.0026,-0.16945 0.05023,-0.16945 0.052,0 0.09454,0.0121 0.09454,0.027 0,0.0148 0.133385,0.53871 0.296411,1.16417 0.163027,0.62545 0.354969,1.60632 0.426538,2.17969 0.158542,1.27016 0.244165,1.72712 0.411701,2.19718 0.07077,0.19855 0.129663,0.37979 0.130875,0.40274 0.0044,0.0828 0.452386,0.92801 0.650977,1.22811 0.559965,0.84616 1.930477,0.99376 2.639931,0.2843 0.244266,-0.24426 0.283751,-0.33482 0.245888,-0.56391 -0.0737,-0.44591 -0.09858,-0.52213 -0.199612,-0.61128 -0.09323,-0.0823 -0.782752,-1.60992 -0.828655,-1.83589 -0.01249,-0.0615 -0.06827,-0.22325 -0.123958,-0.35951 -0.165683,-0.40541 -0.579184,-1.74178 -0.645515,-2.08621 -0.01997,-0.10368 -0.0798,-0.32031 -0.132968,-0.48141 -0.120869,-0.36623 -0.06276,-1.28015 0.08729,-1.37288 0.06094,-0.0377 0.08624,-0.1082 0.05623,-0.15676 -0.03001,-0.0486 -0.01557,-0.11238 0.03208,-0.14183 0.04765,-0.0294 0.112041,0.0126 0.14308,0.0935 0.03104,0.0809 0.116495,0.21392 0.189902,0.29564 0.415642,0.46265 0.623659,0.81452 0.551018,0.93206 -0.03733,0.0604 -0.0269,0.0793 0.02574,0.0468 0.08443,-0.0522 0.276841,0.27745 0.399663,0.68467 0.06845,0.22694 0.02463,0.23585 -0.255909,0.052 -0.116232,-0.0762 -0.229515,-0.12028 -0.251742,-0.0981 -0.02223,0.0222 0.07689,0.32267 0.220264,0.66764 0.655207,1.57653 1.093345,2.89 1.19228,3.57427 0.12654,0.87519 0.01507,1.78209 -0.295635,2.40529 -0.474882,0.9525 -0.707877,1.37511 -0.740277,1.34275 -0.08579,-0.0857 -0.06975,1.05362 0.02051,1.45697 0.07319,0.32705 0.175559,0.5151 0.376404,0.69144 0.15173,0.13322 0.255619,0.26248 0.230865,0.28723 -0.02475,0.0248 0.263802,0.0379 0.641235,0.0291 0.392994,-0.009 0.701433,0.0203 0.721793,0.0688 0.01955,0.0466 0.03964,0.0275 0.04464,-0.0423 0.005,-0.0699 0.222069,-0.25595 0.482383,-0.41356 0.260318,-0.15761 0.600998,-0.39869 0.757078,-0.53573 0.15608,-0.13703 0.32396,-0.22432 0.37307,-0.19397 0.0491,0.0303 0.0788,0.0201 0.066,-0.0228 -0.0286,-0.0957 0.66768,-0.86599 0.78281,-0.86599 0.0456,0 0.0734,-0.0445 0.0618,-0.0989 -0.0116,-0.0544 0.067,-0.14484 0.17467,-0.20097 0.1077,-0.0561 0.19299,-0.13545 0.18952,-0.17626 -0.0156,-0.18392 1.26625,-1.57374 1.40309,-1.52123 0.0675,0.0259 0.0902,-0.005 0.0604,-0.0824 -0.0588,-0.15324 0.12795,-0.39353 0.24813,-0.31926 0.0485,0.03 0.0641,0.0156 0.0347,-0.0319 -0.0679,-0.1098 0.22872,-0.38514 0.32286,-0.29975 0.0386,0.035 0.0462,0.0216 0.0169,-0.0298 -0.0666,-0.1169 0.30919,-0.48182 0.40584,-0.39408 0.0389,0.0353 0.046,0.021 0.0158,-0.032 -0.0667,-0.11673 0.14217,-0.30887 0.2397,-0.22052 0.0381,0.0345 0.045,0.0202 0.0154,-0.0318 -0.0569,-0.0998 0.21996,-0.40373 0.29733,-0.32636 0.0248,0.0248 0.10914,-0.0525 0.18735,-0.17185 0.0782,-0.11935 0.17462,-0.19696 0.21426,-0.17246 0.0396,0.0245 0.0918,-0.007 0.11587,-0.0696 0.0241,-0.0628 0.22668,-0.2213 0.4502,-0.35229 0.31768,-0.18617 0.51238,-0.23817 0.8919,-0.23817 0.2718,0 0.54338,0.048 0.61701,0.10915 0.0723,0.06 0.13151,0.0876 0.13151,0.0612 0,-0.0264 0.17422,0.0291 0.38717,0.12333 0.21294,0.0942 0.43662,0.15228 0.49706,0.12909 0.0604,-0.0232 0.19803,-0.25481 0.30575,-0.51469 0.10771,-0.25989 0.21741,-0.4725 0.24376,-0.47248 0.0264,2e-5 0.25738,0.20599 0.51339,0.45771 0.256,0.25171 0.49413,0.43995 0.52916,0.41829 0.035,-0.0216 0.0637,9.8e-4 0.0637,0.0503 0,0.0493 0.0594,0.0897 0.13199,0.0897 0.0726,0 0.10787,0.039 0.0784,0.0868 -0.0295,0.0477 -0.0222,0.0813 0.0162,0.0746 0.14941,-0.0259 0.27395,0.0124 0.38124,0.11749 0.0615,0.0602 0.50147,0.28345 0.97762,0.49598 0.47616,0.21254 0.85081,0.40136 0.83256,0.41961 -0.0182,0.0182 0.0494,0.0398 0.15026,0.0479 0.14262,0.0115 2.52733,0.77561 3.18911,1.02191 0.0699,0.026 0.17,0.0565 0.22255,0.0678 0.0525,0.0113 0.6431,0.1557 1.31234,0.3209 1.72274,0.42525 5.95312,1.20934 6.76245,1.25341 0.0699,0.004 0.7747,0.0774 1.56633,0.16352 2.11687,0.23032 4.31539,0.4017 6.56167,0.5115 2.48698,0.12156 8.55331,0.0497 11.176,-0.13243 7.03382,-0.48839 14.51148,-1.65012 21.03739,-3.26837 1.11635,-0.27683 2.09743,-0.50332 2.18017,-0.50332 0.12751,0 0.15044,0.0778 0.15044,0.51072 0,1.40897 1.06737,2.16133 2.24177,1.58016 0.34745,-0.17194 0.94527,-0.54442 1.11341,-0.69373 0.0525,-0.0466 0.30356,-0.25627 0.55784,-0.46582 0.25428,-0.20955 0.59079,-0.54126 0.7478,-0.73713 0.15701,-0.19587 0.29233,-0.34827 0.30071,-0.33867 0.008,0.01 0.0401,0.24607 0.0705,0.52547 0.0787,0.72391 0.19269,1.02257 0.48345,1.26723 0.1771,0.14902 0.35529,0.21444 0.58407,0.21444 0.4114,0 0.73959,-0.27188 1.26695,-1.04955 0.20854,-0.30752 0.40803,-0.55912 0.44333,-0.55912 0.0353,0 0.0642,-0.0572 0.0642,-0.127 0,-0.0699 0.032,-0.127 0.0711,-0.127 0.0391,0 0.11447,-0.0952 0.16751,-0.21167 0.1372,-0.30111 0.25328,-0.26211 0.31495,0.10584 0.12386,0.7391 0.31716,1.15023 0.74889,1.59284 0.56329,0.57749 0.98193,0.71796 1.52339,0.51117 0.49993,-0.19092 0.67336,-0.52934 0.54809,-1.06946 -0.0483,-0.20811 -0.0948,-0.41649 -0.10339,-0.46305 -0.009,-0.0466 -0.0402,-0.12389 -0.0702,-0.17184 -0.03,-0.0479 -0.17018,-0.37817 -0.31147,-0.73385 -0.14129,-0.35567 -0.88287,-1.8976 -1.64796,-3.4265 -0.76508,-1.52889 -1.45089,-2.92343 -1.52401,-3.09895 -0.14185,-0.3405 -0.13567,-1.18853 0.0107,-1.47264 0.0441,-0.0855 0.0624,-0.20535 0.0406,-0.2662 -0.0217,-0.0608 0.063,-0.008 0.18839,0.1173 0.18107,0.18107 0.20462,0.24463 0.1145,0.30913 -0.0841,0.0602 -0.0736,0.0683 0.0403,0.0314 0.10848,-0.0351 0.28926,0.0783 0.61383,0.3853 0.25304,0.23931 0.46006,0.46572 0.46006,0.50313 0,0.0374 0.0911,0.16631 0.20242,0.28643 0.22268,0.24028 0.33828,0.55232 0.20462,0.55232 -0.0468,0 -0.21606,-0.0621 -0.3761,-0.13809 -0.16005,-0.0759 -0.31463,-0.11445 -0.34351,-0.0856 -0.0289,0.0289 0.0608,0.2339 0.1994,0.45558 0.13855,0.22169 0.30642,0.49545 0.37304,0.60836 0.0666,0.11291 0.17828,0.27586 0.24813,0.36212 0.0699,0.0862 0.2032,0.28466 0.29634,0.44092 0.0931,0.15625 0.37124,0.6113 0.61802,1.01123 1.13768,1.84375 1.60654,3.58806 1.33836,4.97921 -0.12758,0.66182 -0.41174,1.34089 -0.5611,1.34089 -0.0456,0 -0.0829,0.0497 -0.0829,0.1104 0,0.15411 -0.54706,0.66899 -0.62646,0.58959 -0.0357,-0.0357 -0.0523,-0.008 -0.0368,0.062 0.0155,0.0699 -0.0194,0.11748 -0.0776,0.10584 -0.0582,-0.0116 -0.10584,0.0155 -0.10584,0.0602 0,0.0448 -0.14287,0.11949 -0.3175,0.16604 -0.77225,0.20585 -1.67164,-0.34458 -2.17,-1.32805 -0.12358,-0.24386 -0.25366,-0.44339 -0.28908,-0.44339 -0.0354,0 -0.17322,0.24978 -0.30621,0.55506 -0.16304,0.37424 -0.27917,0.54072 -0.35649,0.51104 -0.0631,-0.0242 -0.11063,-0.0168 -0.10567,0.0165 0.0331,0.2218 -0.0511,0.3481 -0.34007,0.51053 -0.43587,0.24497 -1.04994,0.2469 -1.44748,0.005 -0.37006,-0.22559 -0.47038,-0.34912 -0.71875,-0.88502 -0.17912,-0.38649 -0.43986,-0.58398 -0.43986,-0.33316 0,0.12404 -0.37638,0.63655 -0.46748,0.63655 -0.0378,0 -0.0687,0.0568 -0.0687,0.12618 0,0.33153 -1.26279,0.97449 -1.91391,0.97449 -0.3899,0 -1.13535,-0.18347 -1.08387,-0.26677 0.0238,-0.0385 -0.0112,-0.0491 -0.0778,-0.0235 -0.073,0.028 -0.22387,-0.0783 -0.38001,-0.26773 -0.2538,-0.3079 -0.40923,-0.77788 -0.4664,-1.41028 -0.0158,-0.1745 -0.0511,-0.33964 -0.0784,-0.36697 -0.0273,-0.0273 -0.6038,0.10782 -1.28104,0.30034 -0.67723,0.19252 -1.29949,0.36512 -1.3828,0.38354 -0.0833,0.0184 -0.41816,0.11288 -0.74412,0.20989 -0.85251,0.25371 -3.72151,0.97297 -4.91067,1.23111 -5.31158,1.15303 -9.67773,1.77617 -15.53634,2.21736 -2.80777,0.21144 -10.43704,0.21078 -12.954,-0.001 -5.58932,-0.47057 -9.54148,-1.06663 -13.29266,-2.00479 -1.97155,-0.49308 -2.7068,-0.72074 -4.27482,-1.32364 -0.65146,-0.25049 -1.23249,-0.45543 -1.29116,-0.45543 -0.0818,0 -0.10669,0.34742 -0.10669,1.48661 v 1.48662 l -0.50659,-0.38981 c -1.02079,-0.78548 -1.24751,-1.32517 -1.46465,-3.48653 -0.0101,-0.1009 -0.0334,-0.16844 -0.0518,-0.1501 -0.0183,0.0183 -0.16254,-0.0801 -0.32045,-0.21872 -0.20476,-0.17978 -0.37448,-0.25207 -0.59182,-0.25207 -0.36102,0 -0.94998,0.15692 -1.12871,0.30073 -0.0699,0.0562 -0.2413,0.16075 -0.381,0.23233 -0.27183,0.13928 -1.31234,1.10935 -1.31234,1.22349 0,0.0926 -0.36493,0.4044 -0.4445,0.37977 -0.0349,-0.0108 -0.054,0.0163 -0.0423,0.0602 0.0312,0.11777 -1.80539,2.04295 -1.89571,1.98713 -0.0423,-0.0262 -0.068,-0.0162 -0.0569,0.0222 0.0325,0.11311 -0.21662,0.4508 -0.33256,0.4508 -0.0587,0 -0.0971,0.0328 -0.0855,0.0729 0.0117,0.0401 -0.25505,0.32939 -0.59266,0.64292 -0.33761,0.31354 -0.61384,0.55247 -0.61384,0.53097 0,-0.0215 -0.13643,0.0896 -0.30317,0.24684 -0.16675,0.15726 -0.3382,0.26429 -0.381,0.23783 -0.0428,-0.0265 -0.0778,-0.0135 -0.0778,0.0287 0,0.0998 -0.796049,0.35652 -1.105391,0.35652 -0.131604,0 -0.263211,-0.0387 -0.292461,-0.0861 z m 11.56995,-4.8316 c 0.0901,-0.3009 0.0834,-0.3831 -0.0523,-0.635 -0.0857,-0.15914 -0.18966,-0.28935 -0.23101,-0.28935 -0.0413,0 -0.16238,-0.0857 -0.26896,-0.1905 -0.10657,-0.10477 -0.26243,-0.20289 -0.34635,-0.21803 -0.12355,-0.0223 -0.14152,0.01 -0.0945,0.16934 0.032,0.10827 0.0693,0.23496 0.083,0.28152 0.0137,0.0466 0.10152,0.25612 0.19516,0.46567 0.0936,0.20955 0.19738,0.46673 0.23054,0.5715 0.10231,0.32322 0.36634,0.23864 0.48432,-0.15515 z m -1.70543,-1.68635 c 0,-0.0466 -0.0381,-0.0847 -0.0847,-0.0847 -0.0466,0 -0.0847,0.0381 -0.0847,0.0847 0,0.0466 0.0381,0.0847 0.0847,0.0847 0.0466,0 0.0847,-0.0381 0.0847,-0.0847 z m 1.18533,-1.98467 c 0,-0.0894 -0.16248,-0.12691 -0.21081,-0.0487 -0.0292,0.0473 0.006,0.0861 0.0788,0.0861 0.0726,0 0.13199,-0.0168 0.13199,-0.0373 z m 66.67501,8.43825 c -0.1397,-0.0803 -0.27731,-0.17774 -0.3058,-0.21664 -0.0285,-0.0389 -0.0788,-0.0618 -0.11189,-0.0508 -0.0331,0.011 -0.28175,-0.086 -0.55266,-0.21552 l -0.49257,-0.23543 0.24131,-0.58517 c 0.13271,-0.32184 0.31307,-0.6764 0.40078,-0.78791 0.15242,-0.19377 0.17038,-0.19687 0.40549,-0.0699 0.1353,0.0731 0.49898,0.26169 0.80817,0.41919 l 0.56216,0.28635 -0.27432,0.63104 c -0.15088,0.34707 -0.3178,0.68342 -0.37093,0.74744 -0.0531,0.064 -0.0715,0.14147 -0.0409,0.17211 0.0921,0.0921 -3.6e-4,0.0595 -0.26885,-0.0947 z M 54.960694,193.67968 c -0.206662,-0.0719 -0.288712,-0.14769 -0.271148,-0.25056 0.01452,-0.085 -0.02134,-0.13797 -0.08467,-0.12499 -0.08335,0.0171 -0.105604,-0.1279 -0.09224,-0.60078 0.01385,-0.49021 0.07055,-0.73425 0.265554,-1.143 0.484785,-1.01616 0.687169,-1.09259 0.47542,-0.17954 -0.08777,0.37844 -0.111985,0.69564 -0.07044,0.92261 0.03482,0.19023 0.05522,0.37729 0.04532,0.41567 -0.0099,0.0384 0.01842,0.0473 0.06292,0.0198 0.0445,-0.0275 0.104962,-0.0111 0.134352,0.0365 0.06534,0.10573 0.803927,0.0742 0.804512,-0.0343 2.3e-4,-0.0427 0.02106,-0.057 0.04629,-0.0317 0.08756,0.0875 -0.236006,0.74841 -0.448121,0.91526 -0.241987,0.19035 -0.442354,0.20308 -0.867755,0.0551 z m 15.197668,-0.75784 c 0.372533,-0.25507 0.706177,-0.44689 0.741431,-0.42628 0.03525,0.0206 0.08696,-0.0221 0.114892,-0.0949 0.02794,-0.0728 0.100692,-0.13236 0.16168,-0.13236 0.06099,0 0.123586,-0.0295 0.139108,-0.0655 0.02834,-0.0658 1.062014,-0.86581 1.118694,-0.86581 0.08202,0 0.894311,-0.86854 1.266931,-1.35466 0.232012,-0.30269 0.453735,-0.54081 0.492719,-0.52917 0.03898,0.0116 0.06333,-0.007 0.0541,-0.0423 -0.05833,-0.2208 0.31247,-0.81972 0.453521,-0.73255 0.0415,0.0257 0.06498,0.008 0.05218,-0.0383 -0.01279,-0.0467 0.05142,-0.14064 0.14269,-0.20866 0.154828,-0.11539 0.184976,-0.0945 0.449703,0.31152 0.307782,0.47207 0.329717,0.85659 0.06402,1.12229 -0.151682,0.15168 -0.585875,0.10733 -0.988754,-0.10101 -0.208078,-0.1076 -0.234967,-0.10426 -0.279061,0.0347 -0.02684,0.0846 -0.115308,0.22713 -0.196601,0.31683 -0.08129,0.0897 -0.194341,0.26787 -0.251217,0.39592 -0.05688,0.12806 -0.170903,0.23342 -0.253393,0.23413 -0.107239,9.3e-4 -0.119673,0.0205 -0.04363,0.0688 0.07793,0.0495 0.02512,0.16243 -0.197613,0.42264 -0.167181,0.19532 -0.344752,0.32991 -0.394602,0.2991 -0.05574,-0.0344 -0.06574,-0.0157 -0.02597,0.0486 0.06112,0.0989 -0.330198,0.59887 -0.468721,0.59887 -0.03293,0 -0.18223,0.1143 -0.33178,0.254 -0.149549,0.1397 -0.312503,0.254 -0.36212,0.254 -0.04962,0 -0.150363,0.0541 -0.22388,0.12031 -0.212037,0.19085 -0.968896,0.45988 -1.46074,0.51924 l -0.450927,0.0544 z m -26.204336,-0.47702 c -0.454,-0.0943 -0.81403,-0.31434 -1.075123,-0.65693 -0.196636,-0.25801 -0.236307,-0.39198 -0.23193,-0.78325 0.0056,-0.49771 0.273421,-1.15773 0.506059,-1.24701 0.06748,-0.0259 0.105704,-0.0746 0.08494,-0.10815 -0.06711,-0.10858 1.172476,-1.25485 1.329883,-1.22977 0.09767,0.0156 0.148166,-0.0316 0.148166,-0.13824 0,-0.089 0.0381,-0.16184 0.08467,-0.16184 0.170868,0 0.07831,-0.22972 -0.130984,-0.32507 -0.339968,-0.1549 -0.975576,-0.11985 -1.288718,0.0711 l -0.276701,0.1687 0.05337,-0.23252 c 0.103992,-0.45305 0.43001,-0.84294 0.833807,-0.99715 0.347482,-0.13271 0.491268,-0.13726 1.465094,-0.0463 0.593889,0.0554 1.18575,0.14187 1.315247,0.19207 l 0.23545,0.0913 -0.31648,0.28155 c -0.174065,0.15486 -0.3327,0.26534 -0.352523,0.24552 -0.01982,-0.0198 -0.10995,0.0579 -0.200281,0.17275 -0.09033,0.11484 -0.218623,0.2088 -0.285094,0.2088 -0.06647,0 -0.120855,0.0316 -0.120855,0.0703 0,0.0918 -0.761417,0.63882 -0.763882,0.54878 -0.001,-0.0378 -0.06771,0.0103 -0.148167,0.10697 -0.08046,0.0967 -0.336784,0.31267 -0.569617,0.48005 -0.979419,0.70409 -1.275778,1.29018 -0.895989,1.77194 0.423673,0.53743 1.725502,0.64207 2.660791,0.21388 0.263375,-0.12058 0.478864,-0.20376 0.478864,-0.18486 0,0.10154 0.897701,-0.92307 1.203319,-1.37343 0.196081,-0.28895 0.368896,-0.51298 0.384033,-0.49785 0.109405,0.10941 -0.751761,1.74287 -0.918844,1.74287 -0.04171,0 -0.07584,0.0542 -0.07584,0.12041 0,0.0662 -0.159531,0.25695 -0.354515,0.42385 -0.266577,0.22818 -0.373566,0.27707 -0.43132,0.1971 -0.0543,-0.0752 -0.06332,-0.0642 -0.03077,0.0376 0.03213,0.10044 -0.04571,0.20061 -0.257672,0.33161 -0.167037,0.10323 -0.355606,0.1877 -0.419044,0.1877 -0.06344,0 -0.115341,0.0288 -0.115341,0.064 0,0.17107 -1.066896,0.34864 -1.524,0.25364 z m 11.345335,-1.81715 c 0,-0.0176 0.05802,-0.0801 0.128938,-0.13898 0.10781,-0.0895 0.120199,-0.0842 0.07561,0.032 -0.04554,0.11868 -0.204546,0.20186 -0.204546,0.10701 z m -17.949335,-0.47818 c -0.06985,-0.0423 -0.424619,-0.21219 -0.788375,-0.37759 -0.743434,-0.33805 -0.720192,-0.25958 -0.344419,-1.16288 0.110803,-0.26636 0.201373,-0.53306 0.201266,-0.59267 -1.07e-4,-0.0596 -0.23296,-0.22188 -0.517452,-0.36059 -0.284492,-0.13871 -0.626751,-0.31879 -0.760576,-0.40017 l -0.243318,-0.14797 0.299253,-0.65816 c 0.164589,-0.36199 0.345852,-0.70527 0.402808,-0.76284 0.08211,-0.083 0.27347,-0.0308 0.923925,0.25224 0.936868,0.40761 0.923457,0.37188 0.476035,1.26819 -0.132998,0.26643 -0.241814,0.5171 -0.241814,0.55705 0,0.0399 0.257175,0.20092 0.5715,0.35772 0.314325,0.1568 0.5842,0.31571 0.599722,0.35312 0.01552,0.0374 0.0822,0.068 0.148167,0.068 0.06597,0 0.119944,0.0404 0.119944,0.0897 0,0.0493 0.0381,0.0661 0.08467,0.0373 0.130241,-0.0805 0.106049,-0.004 -0.187505,0.59107 -0.151824,0.30788 -0.329653,0.55489 -0.402167,0.55862 -0.0861,0.004 -0.09449,0.021 -0.02484,0.0492 0.07647,0.0309 0.08143,0.0868 0.01819,0.20498 -0.09565,0.17872 -0.145973,0.19009 -0.335011,0.0757 z m 20.543091,-0.75986 c -0.02477,-0.11642 -0.06284,-0.97367 -0.0846,-1.905 -0.04284,-1.83341 -0.122545,-2.53143 -0.686427,-6.01133 -0.203732,-1.2573 -0.621998,-3.8862 -0.929479,-5.842 -0.307481,-1.9558 -0.619843,-3.72183 -0.694138,-3.92452 -0.08743,-0.23852 -0.117602,-0.49604 -0.08553,-0.73005 0.06258,-0.45655 0.224059,-0.81706 0.335211,-0.74836 0.04847,0.03 0.05926,0.0105 0.02496,-0.045 -0.03323,-0.0538 -0.03291,-0.14225 7e-4,-0.19663 0.03679,-0.0595 0.181989,0.13654 0.36483,0.49264 0.167045,0.32533 0.466887,0.90485 0.666315,1.28783 0.199427,0.38297 0.336416,0.73867 0.304418,0.79044 -0.03293,0.0533 -0.02002,0.0705 0.02974,0.0398 0.106151,-0.0656 0.316326,0.40389 0.237732,0.53106 -0.03052,0.0494 -0.01921,0.0898 0.02512,0.0898 0.104719,0 0.198522,0.24568 0.133792,0.35042 -0.0307,0.0497 -0.09612,0.043 -0.168675,-0.0172 -0.06519,-0.0541 -0.09707,-0.1331 -0.07084,-0.17554 0.02623,-0.0424 0.01629,-0.0667 -0.0221,-0.0539 -0.03839,0.0128 -0.08686,-0.0148 -0.10772,-0.0614 -0.06957,-0.1553 -0.38453,-0.36983 -0.449793,-0.30637 -0.06124,0.0596 0.20123,1.97203 0.66371,4.83604 0.644414,3.99066 1.051776,7.05809 1.051311,7.91633 -5.23e-4,0.96301 -0.241329,3.29566 -0.372348,3.60687 -0.118623,0.28177 -0.122106,0.28336 -0.166197,0.0761 z m 27.716913,-0.0227 c 0,-0.24626 -0.336463,-3.75493 -0.513385,-5.35362 -0.345004,-3.11751 -1.595944,-11.35961 -1.820846,-11.99705 -0.171885,-0.48717 -0.15011,-1.07775 0.05998,-1.62675 0.0996,-0.26026 0.204371,-0.47281 0.232833,-0.47234 0.02846,4.7e-4 0.115748,0.14335 0.193968,0.3175 0.07822,0.17415 0.377754,0.75479 0.665631,1.2903 0.431253,0.80223 0.927818,1.91202 0.927818,2.07361 0,0.0208 -0.05879,0.0152 -0.130652,-0.0124 -0.07186,-0.0276 -0.115283,-0.0655 -0.0965,-0.0843 0.01878,-0.0188 -0.09159,-0.17142 -0.245275,-0.33921 -0.1924,-0.21005 -0.323895,-0.288 -0.422214,-0.25027 -0.119437,0.0458 -0.13355,0.12725 -0.0863,0.49784 0.07462,0.58521 0.501299,3.36183 0.809691,5.26905 0.135535,0.8382 0.362953,2.26695 0.505373,3.175 0.142419,0.90805 0.296001,1.86055 0.341293,2.11666 0.225719,1.27641 0.288555,2.35896 0.190093,3.27498 -0.112817,1.04956 -0.322965,1.96016 -0.494024,2.14067 -0.102755,0.10843 -0.117487,0.10596 -0.117487,-0.0197 z m 15.46719,-0.11699 c -0.0318,-0.0318 -0.0579,-0.42298 -0.0579,-0.86924 -1.3e-4,-1.47706 -0.11208,-2.34797 -1.31783,-10.25173 -0.75084,-4.92179 -0.811997,-5.29829 -0.942073,-5.79966 -0.162667,-0.627 -0.232332,-1.35415 -0.1483,-1.54794 0.03468,-0.08 0.07658,-0.21495 0.09311,-0.29996 0.04528,-0.23284 0.193829,-0.48044 0.288243,-0.48044 0.04608,0 0.119425,0.0937 0.162987,0.20832 0.04356,0.11458 0.237319,0.48606 0.430572,0.8255 0.193252,0.33945 0.358183,0.65528 0.366513,0.70185 0.0083,0.0466 0.07837,0.17992 0.155648,0.29633 0.22575,0.34008 0.4176,0.85638 0.36711,0.98795 -0.0256,0.0668 -0.013,0.10071 0.0282,0.0753 0.0873,-0.054 0.17724,0.14571 0.17724,0.39341 0,0.14624 -0.0201,0.1561 -0.13086,0.0642 -0.072,-0.0597 -0.11126,-0.15965 -0.0873,-0.22204 0.0239,-0.0624 -0.004,-0.11343 -0.062,-0.11343 -0.058,0 -0.17297,-0.0788 -0.25539,-0.17504 -0.248112,-0.28977 -0.356318,-0.15905 -0.327427,0.39554 0.0143,0.27454 0.288567,2.08031 0.609477,4.01283 0.61493,3.70314 0.96833,6.11366 1.06127,7.239 0.0592,0.71694 -0.17757,4.43802 -0.28967,4.55225 -0.035,0.0357 -0.0897,0.0389 -0.12156,0.007 z m -38.661626,-2.19569 c -0.0023,-0.0504 -0.0528,-0.0917 -0.112157,-0.0917 -0.162681,0 -1.500743,-0.64182 -1.500743,-0.71985 0,-0.12956 0.715435,-1.50971 0.782594,-1.50971 0.03714,0 0.389821,0.1524 0.78374,0.33867 0.393919,0.18627 0.757341,0.33867 0.807605,0.33867 0.05193,0 0.06284,0.0457 0.02527,0.10583 -0.03636,0.0582 -0.07214,0.14529 -0.07951,0.19352 -0.02279,0.14922 -0.702313,1.44191 -0.706803,1.34459 z m 42.667906,-0.77611 c -0.0531,-0.26776 -0.18673,-0.92498 -0.29697,-1.4605 -0.31478,-1.5292 -0.4078,-2.37819 -0.30314,-2.76688 0.11241,-0.41743 0.50583,-0.75898 1.20501,-1.04611 0.64303,-0.26407 0.72186,-0.46604 0.19259,-0.49344 -0.20308,-0.0105 -0.48134,0.0394 -0.62045,0.11138 -0.15998,0.0827 -0.27144,0.0994 -0.30474,0.0455 -0.0289,-0.0467 0.007,-0.10782 0.0799,-0.13575 0.0728,-0.0279 0.13237,-0.10807 0.13237,-0.17808 0,-0.18481 0.51953,-0.95814 0.60726,-0.90391 0.0409,0.0252 0.0638,-0.004 0.051,-0.0642 -0.0316,-0.14939 0.36275,-0.19995 0.45269,-0.058 0.0523,0.0824 0.0721,0.0849 0.0731,0.009 0.002,-0.1738 1.1256,0.51879 1.29766,0.8 0.0378,0.0618 0.10474,0.09 0.14877,0.0628 0.16708,-0.10326 0.16718,0.20906 1.7e-4,0.52066 -0.29911,0.55808 -0.78097,0.92605 -1.42337,1.08696 -0.31475,0.0788 -0.73904,0.21691 -0.94286,0.30683 -0.44724,0.19728 -0.41183,0.19611 -0.46442,0.0153 -0.0275,-0.0944 -0.0405,-0.0714 -0.0359,0.0635 0.004,0.11642 -0.0213,0.27746 -0.0561,0.35787 -0.0794,0.18372 -0.0272,0.69962 0.19081,1.8858 0.15192,0.82645 0.24887,2.32833 0.1503,2.32833 -0.0204,0 -0.0805,-0.21907 -0.13359,-0.48683 z m 66.01165,-0.2459 c -0.0388,-0.0394 -0.11501,-0.0733 -0.16934,-0.0754 -0.0543,-0.002 -0.0883,-0.0526 -0.0755,-0.11212 0.0128,-0.0596 -0.0166,-0.0837 -0.0653,-0.0536 -0.15212,0.094 -0.32899,-0.48098 -0.28732,-0.93402 0.0544,-0.59169 0.18529,-1.20307 0.32358,-1.51179 0.0649,-0.14483 0.22529,-0.50935 0.35646,-0.81005 l 0.2385,-0.54672 0.0632,0.37015 c 0.0665,0.38968 0.42827,1.01963 0.58552,1.01963 0.0509,0 0.069,0.0614 0.0402,0.13642 -0.036,0.0937 -0.0156,0.12233 0.0651,0.0914 0.27006,-0.10363 0.49603,1.11836 0.29619,1.60179 -0.11172,0.27026 -0.13152,0.33171 -0.14711,0.45642 -0.006,0.0466 -0.0658,0.0847 -0.13338,0.0847 -0.0675,0 -0.15703,0.0612 -0.19888,0.13596 -0.084,0.15011 -0.77643,0.26447 -0.89188,0.14731 z m 0.99901,-1.01861 c 0.16457,-0.0785 0.29872,-0.1642 0.29812,-0.1905 -6e-4,-0.0263 -0.24886,-0.2124 -0.55169,-0.41355 -0.30283,-0.20115 -0.52859,-0.40133 -0.50169,-0.44486 0.0275,-0.0446 -0.0774,-0.0697 -0.24033,-0.0576 l -0.28925,0.0215 -0.0166,0.56447 c -0.0141,0.48073 0.006,0.57034 0.13585,0.60401 0.34398,0.0892 0.88456,0.0505 1.16556,-0.0835 z M 28.718172,182.96866 c 0.521882,-0.48067 1.023186,-1.21592 0.907741,-1.33136 -0.02998,-0.03 -0.355994,0.007 -0.724479,0.0812 -0.962094,0.19495 -0.939277,0.20092 -0.857061,-0.22408 0.03829,-0.1979 0.07127,-0.3884 0.0733,-0.42333 0.002,-0.0349 0.06491,-0.0635 0.139746,-0.0635 0.08211,0 0.117947,-0.0472 0.09038,-0.11904 -0.02512,-0.0655 0.02795,-0.18568 0.117942,-0.26713 0.08999,-0.0814 0.164782,-0.11359 0.166198,-0.0715 0.0014,0.0421 0.04078,0.0111 0.08747,-0.069 0.04669,-0.0801 0.239453,-0.18727 0.428357,-0.23814 0.465826,-0.12543 1.794366,-0.33732 1.838472,-0.29321 0.138591,0.13859 -0.593772,1.87312 -0.750089,1.77652 -0.04446,-0.0275 -0.05992,0.005 -0.03433,0.0712 0.02684,0.07 -0.05,0.19712 -0.181721,0.30073 -0.125527,0.0987 -0.197402,0.17953 -0.159721,0.17953 0.03768,0 -0.01987,0.0941 -0.127889,0.20906 -0.10802,0.11498 -0.222021,0.19322 -0.253337,0.17387 -0.03131,-0.0194 -0.111502,0.0413 -0.178192,0.1349 -0.138202,0.19387 -0.514772,0.44274 -0.880053,0.58162 -0.197034,0.0749 -0.135078,-0.0102 0.297277,-0.40842 z m 31.745856,-0.42877 c 0,-0.0478 0.08573,-0.13239 0.1905,-0.1879 0.104775,-0.0555 0.252119,-0.17116 0.327431,-0.25698 0.07531,-0.0858 0.177519,-0.15605 0.227128,-0.15605 0.04961,0 0.111618,-0.0675 0.137801,-0.14998 0.02618,-0.0825 0.152575,-0.26809 0.280872,-0.41244 0.128297,-0.14434 0.23997,-0.29592 0.248161,-0.33684 0.0082,-0.0409 0.04084,-0.14108 0.07256,-0.22257 0.07491,-0.19247 -0.1552,-0.1951 -0.970084,-0.0111 -0.333888,0.0754 -0.628606,0.11556 -0.654927,0.0892 -0.02632,-0.0263 -0.0023,-0.23785 0.05343,-0.47006 0.125239,-0.52206 0.520425,-0.95172 1.010362,-1.09851 0.31258,-0.0936 1.636014,-0.35067 1.807269,-0.35098 0.09811,-1.8e-4 0.07503,0.55338 -0.03418,0.81987 -0.05372,0.13109 -0.107584,0.28654 -0.119694,0.34544 -0.04239,0.20619 -0.464611,0.86079 -0.609772,0.94538 -0.08059,0.0469 -0.110476,0.0865 -0.06642,0.0879 0.116554,0.004 -0.475357,0.59524 -0.595659,0.59524 -0.05573,0 -0.123264,0.0572 -0.150068,0.127 -0.0268,0.0699 -0.10708,0.127 -0.178391,0.127 -0.07131,0 -0.129658,0.032 -0.129658,0.0712 0,0.0392 -0.1905,0.1749 -0.423333,0.30162 -0.232833,0.12672 -0.423333,0.19127 -0.423333,0.14343 z m 29.696835,-2.58145 c -0.08149,-0.0619 -0.148166,-0.15273 -0.148166,-0.20192 0,-0.0492 -0.04762,-0.10531 -0.105834,-0.1247 -0.07142,-0.0238 -0.115504,-0.28893 -0.135578,-0.8155 l -0.02974,-0.78026 -0.203089,0.13307 c -0.111699,0.0732 -0.202678,0.10362 -0.202176,0.0676 0.0017,-0.12416 0.746034,-1.13197 0.786133,-1.06445 0.0221,0.0372 0.0455,0.36958 0.052,0.7386 0.0165,0.93722 0.05274,1.04164 0.374516,1.07889 0.147458,0.0171 0.331508,0.0187 0.408999,0.004 0.20032,-0.039 0.306807,-0.56661 0.216422,-1.07238 -0.0876,-0.49019 -0.0164,-1.09274 0.144947,-1.22665 0.144876,-0.12023 0.170484,-0.053 0.306657,0.80502 0.06008,0.37858 0.174758,0.76003 0.262689,0.87381 0.08583,0.11105 0.15727,0.1682 0.158751,0.127 0.0015,-0.0412 0.059,-4.6e-4 0.127829,0.0906 0.118723,0.157 0.132655,0.15796 0.271908,0.0187 0.160686,-0.16069 0.181251,-0.59971 0.06644,-1.41845 -0.05047,-0.3599 -0.03556,-0.53079 0.06268,-0.71827 l 0.128899,-0.24601 0.194721,0.6336 c 0.273122,0.88871 0.286352,2.24418 0.02534,2.59555 -0.207556,0.27941 -0.453105,0.33511 -0.894399,0.2029 -0.208809,-0.0626 -0.302695,-0.1342 -0.273974,-0.20904 0.06728,-0.17534 -0.37725,-0.0625 -0.475264,0.12064 -0.07672,0.14335 -0.725768,0.5089 -0.893434,0.5032 -0.04351,-0.001 -0.145777,-0.0533 -0.227269,-0.11517 z m 81.042877,-0.0515 c -0.009,-0.0699 -0.0112,-0.15557 -0.006,-0.1905 0.006,-0.0349 -0.0205,-0.0635 -0.0577,-0.0635 -0.0372,0 -0.21679,-0.30576 -0.399,-0.67948 -0.25202,-0.51691 -0.36243,-0.66611 -0.46145,-0.6236 -0.75306,0.32334 -1.04508,0.3088 -1.30696,-0.0651 -0.15906,-0.2271 -0.18104,-0.92774 -0.0376,-1.19857 0.25374,-0.47904 0.65708,-0.60452 1.01092,-0.31451 0.36658,0.30047 0.45482,0.40867 0.66912,0.82048 0.11642,0.22372 0.2568,0.45529 0.31195,0.5146 0.0552,0.0593 0.1244,0.18381 0.15388,0.27667 0.0961,0.30275 0.19066,0.17958 0.34169,-0.44501 0.0816,-0.3376 0.18684,-0.70908 0.23379,-0.8255 0.047,-0.11641 0.0963,-0.26657 0.10958,-0.33368 0.0891,-0.4492 0.32823,-1.07699 0.45336,-1.19032 0.0257,-0.0233 0.089,-0.11853 0.14064,-0.21166 0.0516,-0.0931 0.12785,-0.17263 0.16934,-0.17665 0.0415,-0.004 0.14405,-0.0374 0.22791,-0.0742 0.19968,-0.0876 0.53876,0.22498 0.61358,0.56563 0.0714,0.32498 -0.0207,0.91044 -0.17577,1.11746 -0.11165,0.14905 -0.14976,0.15291 -0.46921,0.0475 -0.61917,-0.20435 -0.80161,0.0746 -1.13661,1.73762 -0.22394,1.11172 -0.35523,1.55837 -0.38576,1.31233 z m -1.94304,-1.524 c 0,-0.0466 -0.0404,-0.0847 -0.0897,-0.0847 -0.0493,0 -0.0661,0.0381 -0.0373,0.0847 0.0288,0.0466 0.0691,0.0847 0.0897,0.0847 0.0205,0 0.0373,-0.0381 0.0373,-0.0847 z m 3.38667,-2.87866 c 0,-0.0466 -0.0168,-0.0847 -0.0373,-0.0847 -0.0205,0 -0.0609,0.0381 -0.0897,0.0847 -0.0288,0.0466 -0.012,0.0847 0.0373,0.0847 0.0493,0 0.0897,-0.0381 0.0897,-0.0847 z m -77.159037,3.34433 c -0.02749,-0.23283 -0.0731,-0.70908 -0.101339,-1.05833 -0.02824,-0.34925 -0.125342,-0.84455 -0.215773,-1.10067 -0.09043,-0.25612 -0.17367,-0.50275 -0.184973,-0.54807 -0.0113,-0.0453 -0.09675,-0.12464 -0.189884,-0.17626 -0.09313,-0.0516 -0.159809,-0.13836 -0.148167,-0.19276 0.01164,-0.0544 -0.01241,-0.0989 -0.05345,-0.0989 -0.122093,0 -0.273801,-0.75093 -0.215014,-1.06429 0.02996,-0.15971 0.08196,-0.29038 0.115549,-0.29038 0.199108,0 0.959938,1.26365 1.046577,1.73824 0.01674,0.0917 0.07917,0.33821 0.138726,0.54776 0.122311,0.43037 0.08307,2.10386 -0.05757,2.45534 -0.07727,0.19311 -0.08908,0.17455 -0.134686,-0.21167 z m 9.760477,-1.33448 c -0.29856,-0.54106 -0.422,-0.69249 -0.55034,-0.67508 -1.00713,0.13659 -1.04523,0.13428 -1.22521,-0.0743 -0.14312,-0.16584 -0.16788,-0.28582 -0.13783,-0.66783 0.0412,-0.52316 0.19782,-0.93133 0.35747,-0.93133 0.0585,0 0.12106,-0.0441 0.13903,-0.098 0.055,-0.16506 0.48594,-9.1e-4 0.74649,0.28437 0.13247,0.14503 0.40505,0.55888 0.60573,0.91966 0.23574,0.4238 0.41403,0.65268 0.50375,0.64667 0.0764,-0.005 0.12107,-0.0556 0.0993,-0.11229 -0.049,-0.12784 0.46178,-2.06496 0.58309,-2.21113 0.0486,-0.0586 0.064,-0.10657 0.034,-0.10657 -0.0609,0 0.22484,-0.56139 0.39162,-0.76934 0.0593,-0.0739 0.19259,-0.17953 0.2963,-0.23477 0.15881,-0.0846 0.21558,-0.0734 0.35983,0.0708 0.14773,0.14774 0.17127,0.28115 0.17127,0.97061 0,0.43964 -0.0342,0.82046 -0.0759,0.84626 -0.0418,0.0258 -0.19738,-0.004 -0.34582,-0.0666 -0.37188,-0.15636 -0.66075,-0.0818 -0.81136,0.20947 -0.13656,0.26408 -0.62957,2.24129 -0.62957,2.52489 0,0.3086 -0.11907,0.18636 -0.51189,-0.52554 z m -31.731312,0.39552 c -0.154037,-0.10789 -0.172215,-0.15872 -0.09153,-0.25594 0.08168,-0.0984 0.07445,-0.11124 -0.0383,-0.068 -0.07644,0.0293 -0.143738,0.0112 -0.149559,-0.0404 -0.0058,-0.0515 -0.02011,-0.13183 -0.03175,-0.1784 -0.01164,-0.0466 -0.02593,-0.37129 -0.03175,-0.72161 l -0.01058,-0.63696 -0.211667,0.13869 c -0.116417,0.0763 -0.211667,0.11406 -0.211667,0.084 0,-0.0301 0.166071,-0.30228 0.369045,-0.60484 l 0.369046,-0.55012 0.01554,0.61583 c 0.0085,0.3387 0.03809,0.71127 0.06566,0.82794 0.114073,0.48279 0.481024,0.63873 0.866956,0.36841 0.191575,-0.13418 0.197761,-0.17052 0.148101,-0.87013 -0.05951,-0.83837 0.0018,-1.3605 0.159669,-1.3605 0.06006,0 0.129808,0.10478 0.155001,0.23283 0.02519,0.12806 0.108866,0.56234 0.185938,0.96506 0.135124,0.70607 0.149286,0.73406 0.396375,0.78348 0.140934,0.0282 0.30192,0.0133 0.357746,-0.033 0.05583,-0.0463 0.118263,-0.0675 0.138748,-0.047 0.03645,0.0365 -0.02413,-0.5291 -0.142291,-1.32848 -0.05724,-0.38725 0.06675,-0.91157 0.21558,-0.91157 0.03478,0 0.132738,0.23813 0.217682,0.52917 0.219033,0.75047 0.225896,2.30098 0.01158,2.61661 -0.222386,0.32751 -0.510286,0.36861 -0.97729,0.13951 -0.508469,-0.24945 -0.753039,-0.25958 -0.74145,-0.0307 0.0059,0.11658 -0.08649,0.21846 -0.287637,0.31719 -0.373987,0.18357 -0.507353,0.18695 -0.747197,0.019 z m -40.294973,-0.26011 c -0.05821,-0.0235 -0.105833,-0.0935 -0.105833,-0.1556 0,-0.0621 -0.04763,-0.12876 -0.105833,-0.14817 -0.130677,-0.0436 -0.114364,-1.05997 0.02811,-1.75152 0.115192,-0.55912 0.478296,-1.52079 0.640225,-1.69562 0.09914,-0.10703 0.114873,-0.0955 0.115146,0.0847 4.02e-4,0.26496 0.279436,0.72809 0.635821,1.05531 0.406864,0.37357 0.573578,0.76364 0.56888,1.33104 -0.0049,0.59535 -0.2044,0.98042 -0.615231,1.18766 -0.273724,0.13809 -0.92037,0.18944 -1.161287,0.0922 z m 1.366427,-0.9257 c 0.06585,-0.0253 0.138988,-0.11962 0.162537,-0.20967 0.03407,-0.13028 -0.06535,-0.22422 -0.486627,-0.45981 -0.749577,-0.41919 -1.179749,-0.38302 -1.17305,0.0986 0.0085,0.6102 0.157505,0.72677 0.849316,0.66439 0.290457,-0.0262 0.581977,-0.0683 0.647824,-0.0935 z m 33.241076,0.21477 c 0,-0.0493 0.04457,-0.0621 0.09906,-0.0284 0.06727,0.0416 0.0811,0.0144 0.04311,-0.0846 -0.07569,-0.19723 0.24001,-0.80126 0.567103,-1.08505 0.145419,-0.12616 0.289163,-0.23094 0.319431,-0.23283 0.03027,-0.002 0.187491,-0.12727 0.349383,-0.27861 0.352964,-0.32996 0.547477,-0.48683 0.603648,-0.48683 0.02285,0 0.143551,-0.0945 0.268225,-0.21008 0.124675,-0.11555 0.265874,-0.18586 0.313778,-0.15625 0.0479,0.0296 0.06423,0.0168 0.03629,-0.0284 -0.0678,-0.1097 0.421528,-0.39362 0.545903,-0.31676 0.0606,0.0375 0.07454,0.023 0.03679,-0.038 -0.03513,-0.0568 0.004,-0.12308 0.09275,-0.15697 0.08444,-0.0323 0.227393,-0.12723 0.317665,-0.21107 0.09027,-0.0838 0.19659,-0.15244 0.236262,-0.15244 0.03967,0 0.181265,-0.0807 0.314652,-0.17931 0.141681,-0.10475 0.286514,-0.15211 0.348321,-0.11392 0.06948,0.0429 0.08446,0.0309 0.04364,-0.0352 -0.12275,-0.19862 3.726494,-1.90221 5.463616,-2.41807 l 0.435567,-0.12935 -0.05379,0.33637 c -0.06695,0.41868 -0.367708,1.23389 -0.50741,1.37535 -0.05746,0.0582 -0.135345,0.18197 -0.173086,0.27511 -0.152978,0.3775 -0.124276,-0.0429 0.03442,-0.50411 0.214539,-0.62357 0.213233,-0.66274 -0.01983,-0.59463 -0.479954,0.14028 -2.035351,0.7268 -2.341316,0.8829 -0.187058,0.0954 -0.414648,0.1735 -0.505756,0.1735 -0.09111,0 -0.178351,0.0299 -0.193873,0.0665 -0.02546,0.06 -0.459221,0.29711 -1.845045,1.00855 -0.254187,0.13049 -0.514083,0.28488 -0.577548,0.34309 -0.11583,0.10624 -0.24204,0.1406 -0.399629,0.10881 -0.04657,-0.009 -0.05708,0.0105 -0.02337,0.0442 0.04996,0.05 -0.618956,0.54548 -0.736346,0.54548 -0.01879,0 -0.157352,0.11251 -0.30791,0.25003 -0.150558,0.13751 -0.302055,0.23252 -0.336661,0.21114 -0.0346,-0.0214 -0.0757,-0.002 -0.09132,0.0422 -0.05311,0.15173 -1.279251,1.01626 -1.365619,0.96289 -0.04727,-0.0292 -0.0619,-0.0142 -0.03252,0.0333 0.02938,0.0475 -0.02188,0.15458 -0.113919,0.23787 -0.09204,0.0833 -0.167336,0.11801 -0.167336,0.0771 0,-0.0409 -0.05976,0.011 -0.132794,0.11529 -0.0741,0.10579 -0.177012,0.16425 -0.232833,0.13227 -0.05502,-0.0315 -0.0718,-0.0262 -0.03727,0.012 0.06853,0.0756 -0.08055,0.29653 -0.200132,0.29653 -0.04087,0 -0.0743,-0.0403 -0.0743,-0.0897 z m -7.069667,-1.011 c -0.229119,-0.46567 -0.442009,-0.84667 -0.473089,-0.84667 -0.03108,0 -0.103593,0.0567 -0.161137,0.12607 -0.05754,0.0693 -0.135156,0.1072 -0.172469,0.0841 -0.03731,-0.0231 -0.08062,-0.009 -0.09624,0.0321 -0.05877,0.15314 -0.391063,0.18729 -0.524453,0.0539 -0.07309,-0.0731 -0.162834,-0.14106 -0.199422,-0.15104 -0.03659,-0.01 -0.057,-0.0467 -0.04536,-0.0816 0.01164,-0.0349 -0.02335,-0.054 -0.07775,-0.0423 -0.138188,0.0296 -0.268898,-0.55891 -0.202618,-0.91222 0.139864,-0.74553 0.753632,-0.96914 1.274484,-0.46431 0.159754,0.15484 0.270646,0.31359 0.246426,0.35278 -0.02422,0.0392 -0.008,0.0712 0.03598,0.0712 0.04401,0 0.239752,0.26888 0.434988,0.59751 0.370273,0.62326 0.536963,0.68144 0.576703,0.20126 0.03044,-0.36783 0.26463,-1.07981 0.37908,-1.15249 0.07261,-0.0461 0.07511,-0.0674 0.008,-0.0683 -0.215002,-0.003 0.372976,-1.41226 0.719984,-1.72583 0.122263,-0.11048 0.240994,-0.14165 0.393614,-0.10335 0.120197,0.0302 0.197695,0.0886 0.172217,0.12981 -0.02548,0.0412 -0.0014,0.0899 0.05346,0.10821 0.143224,0.0477 0.197433,1.02969 0.07338,1.32918 -0.09833,0.23739 -0.119153,0.24519 -0.539357,0.20205 -0.362519,-0.0372 -0.462639,-0.0165 -0.586912,0.12123 -0.155697,0.17259 -0.471349,1.30986 -0.658237,2.37157 -0.05943,0.33761 -0.132043,0.61384 -0.161367,0.61384 -0.02933,0 -0.240778,-0.381 -0.469897,-0.84667 z m 24.972712,0.31655 c -0.116416,-0.30337 0.381196,-1.02716 1.020033,-1.48366 0.04661,-0.0333 0.222881,-0.16368 0.391717,-0.28973 0.168836,-0.12604 0.330726,-0.20542 0.359757,-0.17639 0.02903,0.029 0.05278,0.01 0.05278,-0.0429 0,-0.13197 0.60141,-0.52975 0.704559,-0.466 0.04598,0.0284 0.06096,0.015 0.03329,-0.0298 -0.0429,-0.0694 1.128776,-0.87009 1.188321,-0.81205 0.01164,0.0113 0.100312,-0.0585 0.197046,-0.15524 0.106169,-0.10617 0.230989,-0.15473 0.31492,-0.12253 0.07647,0.0294 0.111863,0.0262 0.07865,-0.007 -0.03321,-0.0332 0.139396,-0.17948 0.383581,-0.32503 0.484224,-0.28863 2.389007,-1.23752 2.547203,-1.26893 0.05396,-0.0107 0.326702,-0.12447 0.606102,-0.25279 0.602327,-0.27665 3.463551,-1.23448 3.68763,-1.23448 0.136435,0 0.144847,0.0317 0.06739,0.2539 -0.04868,0.13965 -0.122462,0.23292 -0.163959,0.20727 -0.0415,-0.0257 -0.05677,0.003 -0.03395,0.0636 0.02282,0.0606 -0.07488,0.39598 -0.217118,0.74523 -0.223678,0.54922 -0.253177,0.58925 -0.218354,0.29633 0.02214,-0.18626 0.06695,-0.46214 0.09958,-0.61306 l 0.05932,-0.2744 -0.265489,0.0926 c -0.146019,0.0509 -0.324141,0.07 -0.395827,0.0425 -0.07169,-0.0275 -0.110651,-0.0182 -0.08659,0.0208 0.02406,0.0389 -0.372798,0.2231 -0.881911,0.40927 -0.594619,0.21743 -0.939372,0.30532 -0.964001,0.24574 -0.02307,-0.0558 -0.041,-0.0486 -0.04503,0.0181 -0.0037,0.061 -0.04478,0.0873 -0.09135,0.0585 -0.04657,-0.0288 -0.08467,-0.01 -0.08467,0.0417 0,0.0517 -0.142875,0.15361 -0.3175,0.22649 -0.174625,0.0729 -0.75565,0.34215 -1.291167,0.59838 -0.535517,0.25622 -1.021292,0.4677 -1.0795,0.46994 -0.05821,0.002 -0.105833,0.0422 -0.105833,0.0888 0,0.0466 -0.02227,0.0624 -0.04949,0.0352 -0.02722,-0.0272 -0.123645,0.0141 -0.21428,0.0917 -0.09064,0.0777 -0.30649,0.21758 -0.479678,0.31093 -0.173188,0.0933 -0.649329,0.37909 -1.058091,0.635 -0.408762,0.2559 -0.818075,0.50676 -0.909583,0.55746 -0.09151,0.0507 -0.242843,0.16138 -0.336297,0.24596 -0.09345,0.0846 -0.169916,0.12034 -0.169916,0.0795 0,-0.0409 -0.0611,0.0129 -0.135784,0.11957 -0.07807,0.11146 -0.187901,0.17386 -0.258398,0.14681 -0.06744,-0.0259 -0.101955,-0.0136 -0.07671,0.0272 0.02525,0.0409 -0.08707,0.17571 -0.249603,0.29968 -0.162529,0.12396 -0.295508,0.20733 -0.295508,0.18526 0,-0.0221 -0.105992,0.0617 -0.235538,0.18619 -0.536585,0.51559 -0.769467,0.68276 -0.810503,0.58181 -0.02332,-0.0573 -0.04416,-0.0392 -0.04794,0.0417 -0.0088,0.18866 -0.164893,0.28067 -0.222307,0.13105 z m -18.996141,-0.85017 c -0.0093,-1.12267 -0.186532,-1.94225 -0.537193,-2.48405 -0.146419,-0.22623 -0.258602,-0.4399 -0.249297,-0.47483 0.0093,-0.0349 -0.01971,-0.0635 -0.06448,-0.0635 -0.126172,0 -0.277038,-0.67238 -0.219584,-0.97863 0.04077,-0.21733 0.08497,-0.26558 0.212702,-0.23218 0.08871,0.0232 0.142209,0.0917 0.118939,0.15238 -0.02539,0.0662 0.01532,0.10513 0.101837,0.0975 0.158566,-0.014 0.701004,0.92705 0.749117,1.29961 0.01503,0.11641 0.06095,0.28786 0.10203,0.381 0.125482,0.28446 0.07003,2.31929 -0.07614,2.794 l -0.130351,0.42333 z m -19.376853,0.30762 c -0.238152,-0.0958 -0.358052,-0.52642 -0.358052,-1.28587 0,-0.71516 -0.0096,-0.75577 -0.168382,-0.71424 -0.09261,0.0242 -0.149978,0.0738 -0.127486,0.1102 0.02249,0.0364 -0.01342,0.087 -0.07982,0.11249 -0.08583,0.0329 -0.110973,-0.004 -0.08701,-0.12867 0.03996,-0.20751 0.178512,-0.41562 0.581589,-0.87358 l 0.298083,-0.33866 0.0032,0.80966 c 0.0031,0.78361 0.01119,0.81733 0.252124,1.04816 0.180251,0.17269 0.291227,0.22008 0.402167,0.17173 0.08427,-0.0367 0.184628,-0.0598 0.223015,-0.0512 0.03839,0.009 0.04463,-0.0252 0.01388,-0.0749 -0.03075,-0.0498 -0.0093,-0.14659 0.04757,-0.21517 0.07386,-0.089 0.08737,-0.32429 0.04721,-0.82179 -0.06136,-0.76011 0.0016,-1.27209 0.150294,-1.22252 0.05202,0.0173 0.182719,0.46573 0.290434,0.99643 0.107716,0.5307 0.205744,0.9748 0.217841,0.9869 0.0121,0.0121 0.139506,0.0455 0.283131,0.0742 0.216351,0.0433 0.284935,0.0159 0.399904,-0.15956 0.127114,-0.194 0.127774,-0.25919 0.0079,-0.77626 -0.165952,-0.71557 -0.166051,-1.09674 -3.23e-4,-1.23429 0.185326,-0.1538 0.254942,-0.0428 0.410683,0.65469 0.258875,1.15943 0.137457,2.25365 -0.274538,2.47414 -0.292338,0.15646 -0.602711,0.11175 -0.687429,-0.099 -0.04211,-0.10477 -0.07899,-0.13843 -0.08194,-0.0748 -0.0052,0.11272 -0.121079,0.10486 -0.449867,-0.0305 -0.105641,-0.0435 -0.148166,-0.0212 -0.148166,0.0777 0,0.0763 -0.05693,0.16056 -0.126514,0.18726 -0.06958,0.0267 -0.107045,0.08 -0.08325,0.11855 0.124939,0.20216 -0.612402,0.41724 -0.956184,0.27892 z"
         id="path1" /></g></g></svg>
